<svg width="20" height="20" viewBox="0 0 20 20" fill="none" xmlns="http://www.w3.org/2000/svg">
<path d="M17.6552 11.7701H0.309754C0.138702 11.7701 0 11.6314 0 11.4604V0.309754C0 0.138702 0.138702 0 0.309754 0H17.6552C17.8262 0 17.9649 0.138702 17.9649 0.309754V11.4604C17.9649 11.6314 17.8262 11.7701 17.6552 11.7701Z" transform="translate(1 4.00964)" fill="#41479B"/>
<path d="M17.9649 0.309754C17.9649 0.138702 17.8262 0 17.6552 0H16.2694L10.5311 3.75954V0H7.43372V3.75954L1.69551 0H0.309754C0.138702 0 0 0.138702 0 0.309754V1.11084L4.92312 4.33635H0V7.43375H4.92312L0 10.6593V11.4604C0 11.6314 0.138702 11.7701 0.309754 11.7701H1.69554L7.43379 8.0106V11.7701H10.5312V8.0106L16.2694 11.7701H17.6552C17.8263 11.7701 17.965 11.6314 17.965 11.4604V10.6593L13.0419 7.43379H17.9649V4.33639H13.0418L17.9649 1.11084V0.309754Z" transform="translate(1 4.00964)" fill="#F5F5F5"/>
<path d="M17.9649 4.95586H9.91168V0H8.05323V4.95586H0V6.81428H8.05323V11.7701H9.91168V6.81428H17.9649V4.95586Z" transform="translate(1 4.00964)" fill="#FF4B55"/>
<path d="M6.27011 0L0 4.07007C0.0219298 4.21965 0.145263 4.33639 0.300947 4.33639H0.727579L7.40793 3.50877e-05H6.27011V0Z" transform="translate(1.00879 11.4434)" fill="#FF4B55"/>
<path d="M1.13782 0H0L6.67063 4.32997C6.82611 4.3134 6.94881 4.18646 6.94881 4.0266V3.77193L1.13782 0Z" transform="translate(12.0161 11.4434)" fill="#FF4B55"/>
<path d="M0 0.621474L5.67646 4.30618H6.81428L0.180456 0C0.0744912 0.0492281 0 0.155018 0 0.279544V0.621474Z" transform="translate(1 4.03979)" fill="#FF4B55"/>
<path d="M1.13782 4.33635L7.42298 0.256456C7.39688 0.111825 7.27618 0 7.124 0H6.68025L0 4.33635H1.13782Z" transform="translate(11.5312 4.00964)" fill="#FF4B55"/>
</svg>
