<svg width="20" height="20" viewBox="0 0 20 20" fill="none" xmlns="http://www.w3.org/2000/svg">
<path fill-rule="evenodd" clip-rule="evenodd" d="M10.2452 12.2713C11.067 12.6513 11.3658 11.8589 11.3658 11.8589L13.4996 0.438491C13.4996 -0.321763 12.5138 0.137466 12.5138 0.137466L0.525483 5.1266C0.525483 5.1266 0.343843 5.19264 0.19394 5.31886C0.0791942 5.41579 -0.0169972 5.54811 0.00253405 5.71315C0.0464794 6.0934 0.50937 6.26784 0.50937 6.26784L3.52548 7.34511C3.52548 7.34511 3.80039 8.30177 4.07822 9.26369C4.30576 10.0521 4.53525 10.8441 4.61582 11.1156C4.7955 11.7162 4.93906 11.7308 4.93906 11.7308C5.10605 11.8078 5.25839 11.6853 5.25839 11.6853L7.20664 9.80006L10.2452 12.2713ZM9.7496 3.93715L5.22763 6.36012L3.20175 5.63625L11.6598 2.11708L10.1393 10.252L7.12021 7.79604L6.19589 8.69044L6.35556 7.1985L9.7496 3.93715Z" transform="translate(3.25049 3.81299)" fill="white"/>
</svg>
