<svg width="20" height="20" viewBox="0 0 20 20" fill="none" xmlns="http://www.w3.org/2000/svg">
<path fill-rule="evenodd" clip-rule="evenodd" d="M4.6665 7.99996C4.6665 5.77773 5.7776 4.66663 7.99984 4.66663C10.2221 4.66663 11.3332 5.77773 11.3332 7.99996C11.3332 10.2222 10.2221 11.3333 7.99984 11.3333C5.7776 11.3333 4.6665 10.2222 4.6665 7.99996ZM4.70833 4.70833C4.125 5.29167 3.73611 5.94444 3.54167 6.66667H0V2C0 1.41666 0.194442 0.944446 0.583333 0.583333C1.02778 0.194442 1.51389 0 2.04167 0H14.0417C14.5694 0 15.0278 0.194442 15.4167 0.583333C15.8056 0.972224 16 1.44444 16 2V6.66667H12.5C12.3056 5.94444 11.9167 5.29167 11.3333 4.70833C10.4167 3.79166 9.30556 3.33333 8 3.33333C6.72222 3.33333 5.625 3.79166 4.70833 4.70833ZM14.6667 3.50004V1.87504C14.6667 1.73615 14.6111 1.61115 14.5 1.50004C14.3889 1.38893 14.2639 1.33337 14.125 1.33337H12.5417C12.4028 1.33337 12.2778 1.38893 12.1667 1.50004C12.0556 1.61115 12 1.73615 12 1.87504V3.50004C12 3.63893 12.0556 3.76393 12.1667 3.87504C12.25 3.95837 12.375 4.00004 12.5417 4.00004H14.125C14.2917 4.00004 14.4167 3.95837 14.5 3.87504C14.6111 3.76393 14.6667 3.63893 14.6667 3.50004ZM11.3333 11.2917C12.2222 10.4028 12.6667 9.30556 12.6667 8H16V14C16 14.5 15.8056 14.9722 15.4167 15.4167C15.0556 15.8056 14.5972 16 14.0417 16H2.04167C1.48611 16 1.01389 15.8056 0.625 15.4167C0.208331 15 0 14.5278 0 14V8H3.375C3.375 9.30556 3.81944 10.4028 4.70833 11.2917C5.625 12.2083 6.72222 12.6667 8 12.6667C9.30556 12.6667 10.4167 12.2083 11.3333 11.2917Z" transform="translate(2 2)" fill="white"/>
</svg>
