<svg width="15" height="15" viewBox="0 0 15 15" fill="none" xmlns="http://www.w3.org/2000/svg">
<path d="M14.5703 12.1016C14.8568 12.6745 15 13.2734 15 13.8984C15 15.0443 14.5964 16.0208 13.7891 16.8281C12.9818 17.6094 12.0052 18 10.8594 18C10.1302 18 9.47917 17.8438 8.90625 17.5312C8.48958 17.6094 8.04688 17.6484 7.57812 17.6484C5.59896 17.6484 3.90625 16.9583 2.5 15.5781C1.11979 14.1979 0.429688 12.5312 0.429688 10.5781C0.429688 10.2656 0.481771 9.79688 0.585938 9.17188C0.195312 8.46875 0 7.77865 0 7.10156C0 5.95573 0.403646 4.99219 1.21094 4.21094C2.01823 3.40365 2.99479 3 4.14062 3C4.94792 3 5.6901 3.20833 6.36719 3.625C6.6276 3.57292 7.03125 3.54688 7.57812 3.54688C9.55729 3.54688 11.237 4.23698 12.6172 5.61719C14.0234 6.97135 14.7266 8.625 14.7266 10.5781C14.7266 11.1771 14.6745 11.6849 14.5703 12.1016ZM11.25 13.9375C11.5625 13.5208 11.7188 13 11.7188 12.375C11.7188 11.8802 11.6276 11.4635 11.4453 11.125C11.263 10.7865 10.9896 10.5 10.625 10.2656C10.3385 10.0833 9.9349 9.90104 9.41406 9.71875C9.04948 9.61458 8.51562 9.48438 7.8125 9.32812C7.29167 9.19792 6.96615 9.11979 6.83594 9.09375L6.25 8.85938C6.17188 8.83333 6.04167 8.72917 5.85938 8.54688C5.75521 8.39062 5.70312 8.26042 5.70312 8.15625C5.70312 7.86979 5.84635 7.63542 6.13281 7.45312C6.41927 7.27083 6.83594 7.17969 7.38281 7.17969C7.98177 7.17969 8.38542 7.27083 8.59375 7.45312C8.77604 7.60938 8.98438 7.86979 9.21875 8.23438C9.32292 8.41667 9.46615 8.59896 9.64844 8.78125C9.83073 8.91146 10.0391 8.97656 10.2734 8.97656C10.5339 8.97656 10.7682 8.8724 10.9766 8.66406C11.1849 8.45573 11.2891 8.23438 11.2891 8C11.2891 7.73958 11.2109 7.46615 11.0547 7.17969C10.8724 6.89323 10.638 6.63281 10.3516 6.39844C10.0391 6.16406 9.64844 5.96875 9.17969 5.8125C8.78906 5.68229 8.22917 5.61719 7.5 5.61719C6.64062 5.61719 5.95052 5.72135 5.42969 5.92969C4.83073 6.16406 4.36198 6.48958 4.02344 6.90625C3.71094 7.32292 3.55469 7.79167 3.55469 8.3125C3.55469 8.88542 3.69792 9.35417 3.98438 9.71875C4.24479 10.0573 4.66146 10.3568 5.23438 10.6172C5.80729 10.8516 6.43229 11.0339 7.10938 11.1641C7.89062 11.3203 8.33333 11.4245 8.4375 11.4766C8.72396 11.5547 8.97135 11.6979 9.17969 11.9062C9.36198 12.0625 9.45312 12.2839 9.45312 12.5703C9.45312 12.9349 9.28385 13.2344 8.94531 13.4688C8.60677 13.7031 8.125 13.8203 7.5 13.8203C7.10938 13.8203 6.75781 13.7552 6.44531 13.625C6.21094 13.5208 6.01562 13.3776 5.85938 13.1953C5.70312 12.987 5.5599 12.7396 5.42969 12.4531C5.32552 12.2188 5.19531 12.0234 5.03906 11.8672C4.88281 11.7109 4.67448 11.6328 4.41406 11.6328C4.10156 11.6328 3.85417 11.724 3.67188 11.9062C3.46354 12.1146 3.35938 12.3359 3.35938 12.5703C3.35938 13.013 3.51562 13.4427 3.82812 13.8594C4.11458 14.25 4.50521 14.5885 5 14.875C5.67708 15.2396 6.52344 15.4219 7.53906 15.4219C8.45052 15.4219 9.20573 15.2917 9.80469 15.0312C10.4818 14.7448 10.9635 14.3802 11.25 13.9375Z" transform="translate(0 -3)" fill="white"/>
</svg>
