<svg width="20" height="20" viewBox="0 0 20 20" fill="none" xmlns="http://www.w3.org/2000/svg">
<path fill-rule="evenodd" clip-rule="evenodd" d="M19.8828 3.32031C19.9609 4.72657 20 6.11978 20 7.5C20 8.88022 19.9609 10.2734 19.8828 11.6797C19.8828 12.5651 19.6029 13.3138 19.043 13.9258C18.4831 14.5378 17.7995 14.8438 16.9922 14.8438C14.987 14.9479 12.6563 15 10 15C7.34374 15 5.01303 14.9479 3.00781 14.8438C2.20052 14.8438 1.51693 14.5378 0.957031 13.9258C0.397133 13.3138 0.117188 12.5651 0.117188 11.6797C0.0390621 10.2734 0 8.88022 0 7.5C0 6.58854 0.0520828 5.19532 0.15625 3.32031C0.15625 2.43489 0.429685 1.6862 0.976562 1.07422C1.52344 0.462237 2.20052 0.15625 3.00781 0.15625C4.90886 0.0520828 7.12238 0 9.64844 0H10.3516C12.8776 0 15.0911 0.0520828 16.9922 0.15625C17.7995 0.15625 18.4831 0.462237 19.043 1.07422C19.6029 1.6862 19.8828 2.43489 19.8828 3.32031ZM8.08594 11.3281L13.75 7.5L8.08594 3.63281V11.3281Z" transform="translate(0 2.5)" fill="white"/>
</svg>
