<svg width="39" height="36" viewBox="0 0 39 36" fill="none" xmlns="http://www.w3.org/2000/svg">
<path fill-rule="evenodd" clip-rule="evenodd" d="M0 17.9982C0 8.0598 8.36426 0 18.6865 0C29.0073 0 37.377 8.0598 37.377 17.9982C37.377 27.9402 29.0073 36 18.6865 36C8.36426 36 0 27.9402 0 17.9982ZM20.3145 26.1036C23.1523 25.6674 25.043 23.9394 25.043 21.1674V21.1176C25.043 18.2766 23.1089 17.0934 19.6777 16.2306C16.7559 15.51 16.0298 15.162 16.0298 14.0916V14.0442C16.0298 13.2516 16.7798 12.624 18.2051 12.624C20.2783 12.624 21.7563 13.719 21.7563 13.719L23.6177 10.9032C23.6177 10.9032 22.2983 9.85561 20.3145 9.666V7.7238L16.5454 7.7274V9.6366C14.0156 10.1766 12.333 11.931 12.333 14.3724V14.418C12.333 17.6526 14.5322 18.5592 17.9395 19.3962C20.7646 20.0958 21.3452 20.5596 21.3452 21.4668V21.5142C21.3452 22.4682 20.4272 23.052 18.9053 23.052C16.5161 23.052 14.582 21.5844 14.582 21.5844L12.4795 24.2598C12.4795 24.2598 14.2974 25.6236 16.5454 25.9788L16.5435 28.2744H20.3145V26.1036Z" transform="translate(0.729492)" fill="white"/>
</svg>
