<svg width="37" height="41" viewBox="0 0 37 41" fill="none" xmlns="http://www.w3.org/2000/svg">
<path d="M33.8796 34.2062C33.5825 34.3853 33.3577 34.5171 33.5185 34.9487C34.6945 38.092 32.0019 40.4521 29.603 40.819C29.2242 40.8765 28.8415 40.9059 28.4582 40.9069C22.1233 40.9117 15.7876 40.9413 9.45196 40.8989C5.48642 40.8717 2.59022 39.0815 0.830678 35.6073C0.241427 34.442 0.000146424 33.1816 0.000146424 31.8821C0.000146424 28.7646 0.000146424 25.6476 0.000146424 22.5312C-0.0110523 20.6007 0.620403 18.7185 1.79991 17.1669C5.5373 12.1691 9.27825 7.17261 13.0228 2.17748C13.4044 1.66997 13.818 1.16087 14.3104 0.762859C15.763 -0.414393 17.864 -0.202599 19.1615 1.21522C20.5304 2.70976 20.8775 4.44007 20.1184 6.28147C18.9899 9.01801 17.7597 11.7162 16.573 14.4271C16.509 14.5734 16.4483 14.7196 16.3441 14.9642C16.6436 14.9642 16.8365 14.9642 17.0367 14.9642C20.9541 14.9914 24.8718 15.018 28.7897 15.0441C30.0667 15.0521 31.2723 15.2839 32.3072 16.0743C33.3174 16.8472 33.8419 17.855 33.8 19.1114C33.7811 19.6612 33.6597 20.2055 33.6211 20.7554C33.6112 20.8936 33.6974 21.1214 33.8074 21.1741C36.198 22.3258 36.5074 25.6849 34.6749 27.5335C34.6359 27.5697 34.603 27.6115 34.5772 27.6574C34.9875 28.3847 35.4734 29.0057 35.6958 29.7098C36.2497 31.4665 35.4923 33.2296 33.8796 34.2062Z" transform="translate(0.540527)" fill="white"/>
</svg>
