<svg width="20" height="21" viewBox="0 0 20 21" fill="none" xmlns="http://www.w3.org/2000/svg">
<path d="M15.048 10.856C15.336 10.552 15.56 10.208 15.72 9.824C15.896 9.44 15.984 9.032 15.984 8.6C15.984 7.88 15.8 7.216 15.432 6.608C15.08 6 14.6 5.52 13.992 5.168C13.384 4.8 12.72 4.616 12 4.616C11.28 4.616 10.616 4.8 10.008 5.168C9.4 5.52 8.912 6 8.544 6.608C8.192 7.216 8.016 7.88 8.016 8.6H9.984C9.984 8.056 10.184 7.584 10.584 7.184C10.984 6.784 11.456 6.584 12 6.584C12.544 6.584 13.016 6.784 13.416 7.184C13.816 7.584 14.016 8.048 14.016 8.576C14.016 9.104 13.816 9.584 13.416 10.016L12.192 11.264C11.824 11.664 11.544 12.096 11.352 12.56C11.128 13.056 11.016 13.56 11.016 14.072V14.6H12.984C12.984 13.912 13.096 13.344 13.32 12.896C13.464 12.608 13.744 12.24 14.16 11.792L15.048 10.856ZM12.984 18.584V16.616H11.016V18.584H12.984ZM12 1.616C13.824 1.616 15.512 2.072 17.064 2.984C18.568 3.848 19.752 5.032 20.616 6.536C21.528 8.088 21.984 9.776 21.984 11.6C21.984 13.424 21.528 15.112 20.616 16.664C19.752 18.168 18.568 19.352 17.064 20.216C15.512 21.128 13.824 21.584 12 21.584C10.176 21.584 8.488 21.128 6.936 20.216C5.432 19.336 4.248 18.144 3.384 16.64C2.472 15.088 2.016 13.408 2.016 11.6C2.016 9.792 2.472 8.112 3.384 6.56C4.264 5.056 5.456 3.864 6.96 2.984C8.512 2.072 10.192 1.616 12 1.616Z" transform="translate(-2 -1)" fill="white"/>
</svg>
