<svg width="10" height="16" viewBox="0 0 10 16" fill="none" xmlns="http://www.w3.org/2000/svg">
<path fill-rule="evenodd" clip-rule="evenodd" d="M0.0401792 10.125C-0.147322 8.3203 0.321424 6.4922 1.44643 4.64062C2.57143 2.78905 3.96595 1.24219 5.63002 0C5.46596 0.937505 5.46596 1.76953 5.63002 2.49609C5.79409 3.22266 6.06361 3.83203 6.43862 4.32422C6.81362 4.81641 7.19447 5.30273 7.58119 5.7832C7.96792 6.26367 8.3019 6.87304 8.58315 7.61133C8.8644 8.34961 9.00502 9.1875 9.00502 10.125C8.98159 11.9297 8.41323 13.3184 7.29994 14.291C6.18666 15.2637 5.25503 15.75 4.50502 15.75C4.24721 15.75 3.91909 15.668 3.52065 15.5039C3.12221 15.3398 2.67104 15.0762 2.16713 14.7129C1.66322 14.3496 1.21206 13.7695 0.813617 12.9727C0.415177 12.1758 0.157367 11.2266 0.0401792 10.125ZM3.09863 11.8125C3.09863 12.2813 3.21582 12.75 3.4502 13.2188C3.68457 13.6875 3.91894 14.0391 4.15332 14.2734L4.50488 14.625C5.46583 13.7812 5.94629 12.8438 5.94629 11.8125C5.94629 11.3437 5.82324 10.875 5.57715 10.4062C5.33105 9.9375 5.09082 9.58594 4.85645 9.35156L4.50488 9C3.56738 9.84375 3.09863 10.7812 3.09863 11.8125Z" fill="white"/>
</svg>
