<svg width="41" height="38" viewBox="0 0 41 38" fill="none" xmlns="http://www.w3.org/2000/svg">
<path fill-rule="evenodd" clip-rule="evenodd" d="M18.8291 1.45825L38.3799 20.5148C39.2427 21.3555 39.2427 22.6767 38.3799 23.5174L24.1685 37.3694C23.3062 38.2102 21.9097 38.2102 21.0469 37.3694L1.49609 18.3129C0.428223 17.272 -0.105957 15.8307 0.0175781 14.3495L1.04443 2.89951C1.12646 1.89862 1.98877 1.05789 3.01562 0.977814L14.7627 0.0169983C16.2827 -0.103119 17.7612 0.417328 18.8291 1.45825ZM6.50684 9.70541C6.50684 11.5871 8.06787 13.1084 9.99805 13.1084C11.9287 13.1084 13.4893 11.5871 13.4893 9.70541C13.4893 7.82379 11.9287 6.30246 9.99805 6.30246C8.06787 6.30246 6.50684 7.82379 6.50684 9.70541Z" transform="translate(0.378418)" fill="white"/>
</svg>
