<svg width="60" height="44" viewBox="0 0 60 44" fill="none" xmlns="http://www.w3.org/2000/svg">
<path fill-rule="evenodd" clip-rule="evenodd" d="M33.0967 0H4.28369C1.92773 0 0 1.8927 0 4.19049V20.9105C0 23.2152 1.92773 25.101 4.28369 25.101H33.0967C35.4536 25.101 37.3804 23.2152 37.3804 20.9105V4.19049C37.3804 1.8927 35.4526 0 33.0967 0ZM9.00977 16.0705C7.0249 16.0705 5.41162 14.499 5.41162 12.5505C5.41162 10.6089 7.0249 9.03745 9.00977 9.03745C10.9946 9.03745 12.6079 10.6089 12.6079 12.5505C12.6079 14.499 10.9946 16.0705 9.00977 16.0705ZM24.7803 12.5505C24.7803 14.499 26.3867 16.0705 28.3706 16.0705C30.355 16.0705 31.9688 14.499 31.9688 12.5505C31.9688 10.6089 30.355 9.03745 28.3706 9.03745C26.3867 9.03745 24.7803 10.6089 24.7803 12.5505Z" transform="translate(11.4722 18.8432)" fill="white"/>
<path d="M7.83944 3.83429C7.83944 5.27302 7.03272 6.52317 5.83264 7.17968V16.699H2.0068V7.17968C0.806717 6.52317 0 5.27302 0 3.83429C0 1.7181 1.75622 0 3.91936 0C6.08251 0 7.83944 1.7181 7.83944 3.83429Z" transform="translate(26.2422 0.169708)" fill="white"/>
<path d="M8.23851 0V15.0997H4.28345C1.92755 15.0997 0 13.2147 0 10.9092V4.19048C0 1.88641 1.92755 0 4.28345 0H8.23851Z" transform="translate(1.0918 23.8473)" fill="black"/>
<path d="M8.23851 0V15.0997H4.28345C1.92755 15.0997 0 13.2147 0 10.9092V4.19048C0 1.88641 1.92755 0 4.28345 0H8.23851Z" transform="translate(1.0918 23.8473)" fill="white"/>
<path d="M8.23851 4.19048V10.9092C8.23851 13.2147 6.31096 15.0997 3.95506 15.0997H0V0H3.95506C6.31096 0 8.23851 1.88641 8.23851 4.19048Z" transform="translate(50.9941 23.8473)" fill="black"/>
<path d="M8.23851 4.19048V10.9092C8.23851 13.2147 6.31096 15.0997 3.95506 15.0997H0V0H3.95506C6.31096 0 8.23851 1.88641 8.23851 4.19048Z" transform="translate(50.9941 23.8473)" fill="white"/>
</svg>
