<svg width="18" height="18" viewBox="0 0 18 18" fill="none" xmlns="http://www.w3.org/2000/svg">
<path fill-rule="evenodd" clip-rule="evenodd" d="M18.0005 9.00024C18 13.9708 13.9707 17.9994 9.00049 18C4.0293 17.9994 0.000488281 13.9708 0 9.00024C0.000488281 4.02893 4.0293 0 9.00049 0C13.9707 0 18 4.02893 18.0005 9.00024ZM9.271 14.7836L9.2793 16.9741C11.3384 16.9033 13.1953 16.0549 14.5737 14.7109L13.0195 13.1665C12.0386 14.1129 10.7256 14.7164 9.271 14.7836ZM15.0156 3.75745C16.1465 5.05432 16.8652 6.71631 16.9678 8.54736L14.7808 8.67078C14.707 7.3551 14.1938 6.1582 13.3862 5.22144L15.0156 3.75745ZM9.00049 13.7715C11.6357 13.7667 13.7671 11.6355 13.772 9.00012C13.7671 6.36438 11.6357 4.23291 9.00049 4.22815C6.36523 4.23291 4.2334 6.36438 4.22852 9.00012C4.2334 11.6355 6.36523 13.7667 9.00049 13.7715ZM9.00049 1.01892V3.20923C7.61426 3.20947 6.34229 3.69727 5.3457 4.5094L3.78662 2.95996C5.18652 1.75098 7.00537 1.01892 9.00049 1.01892ZM3.20947 9C3.20947 8.97632 3.21094 8.95288 3.21143 8.9292L1.021 9.05273C1.03418 11.1425 1.84961 13.0361 3.1748 14.4528L4.79883 12.9824C3.81494 11.9446 3.20996 10.5435 3.20947 9Z" fill="white"/>
</svg>
