<svg width="45" height="40" viewBox="0 0 45 40" fill="none" xmlns="http://www.w3.org/2000/svg">
<path fill-rule="evenodd" clip-rule="evenodd" d="M5.52051 0H19.873C22.9092 0 25.3931 2.43243 25.3931 5.40541V21.6216L20.9771 17.8378H5.52051C2.48389 17.8378 0 15.4054 0 12.4324V5.40541C0 2.43243 2.48389 0 5.52051 0ZM6.62451 12.4324C6.62451 13.3286 7.36523 14.054 8.28027 14.054C9.19531 14.054 9.93652 13.3286 9.93652 12.4324C9.93652 11.5362 9.19531 10.8108 8.28027 10.8108C7.36523 10.8108 6.62451 11.5362 6.62451 12.4324ZM12.6963 14.054C11.7812 14.054 11.0405 13.3286 11.0405 12.4324C11.0405 11.5362 11.7812 10.8108 12.6963 10.8108C13.6113 10.8108 14.3525 11.5362 14.3525 12.4324C14.3525 13.3286 13.6113 14.054 12.6963 14.054ZM15.4565 12.4324C15.4565 13.3286 16.1973 14.054 17.1123 14.054C18.0273 14.054 18.7686 13.3286 18.7686 12.4324C18.7686 11.5362 18.0273 10.8108 17.1123 10.8108C16.1973 10.8108 15.4565 11.5362 15.4565 12.4324Z" transform="translate(18.3701 0.200546)" fill="white"/>
<path d="M38.2593 28.7308L29.7167 23.7605C27.1062 22.2416 23.7018 23.0903 22.1512 25.6459L21.3099 27.0319C19.2508 25.5805 17.2553 23.9319 15.3651 22.08C13.5589 20.3119 11.9392 18.4508 10.5051 16.5297L11.8073 15.7724C14.4173 14.2535 15.284 10.92 13.7322 8.36432L8.65689 0L0.115374 4.97027L0.121998 4.98162L0 5.0173C2.15015 12.0238 6.34831 18.9822 12.4377 24.9465C18.6298 31.0086 25.8691 35.1508 33.1432 37.2227L33.1818 37.0935L33.1834 37.0946L38.2593 28.7308Z" transform="translate(0.614746 2.57675)" fill="white"/>
</svg>
