<svg width="451" height="297" viewBox="0 0 451 297" fill="none" xmlns="http://www.w3.org/2000/svg">
<g opacity="0.1">
<path d="M674.818 423.348C673.204 421.2 671.145 418.445 669.998 416.53C670.747 415.293 671.94 413.658 672.806 412.42C679.194 403.43 694.192 382.392 668.805 360.045C661.177 353.32 654.041 350.051 646.975 350.051C632.585 350.051 625.636 363.034 621.471 370.786C621.003 371.65 620.441 372.725 619.88 373.729C614.569 371.767 604.016 367.447 583.941 358.714C589.91 354.433 594.235 348.247 596.201 341.178C598.123 333.813 597.731 326.037 595.078 318.902L594.75 317.921C601.641 313.156 606.083 305.606 606.894 297.279C607.397 292.211 606.591 287.098 604.554 282.428C598.117 267.59 586.857 255.35 572.593 247.683C572.125 244.6 571.61 241.355 571.025 238.039C614.077 221.834 625.261 219.102 628.069 218.681C630.713 219.102 633.357 219.732 636.118 220.409C641.159 221.813 646.353 222.597 651.584 222.744C664.43 222.744 674.467 216.066 683.148 201.729C690.355 189.82 689.489 179.733 687.5 173.358C685.109 166.341 680.737 160.162 674.912 155.565C678.843 147.322 682.399 135.624 678.305 124.742C675.684 117.737 668.945 108.724 652.005 105.105C649.384 104.537 646.709 104.247 644.027 104.241C609.866 104.241 598.167 149.844 594.891 168.384L549.148 186.131L547.323 183.796C562.461 149.844 567.609 113.301 572.616 77.8779C574.652 63.3539 576.968 46.8918 580.033 31.7607C582.091 21.5665 577.786 11.1401 569.13 5.35129C563.626 1.76358 557.172 -0.0986923 550.598 0.00403188C542.737 0.242483 535.078 2.54604 528.394 6.68227C493.671 26.5535 459.697 48.106 427.151 70.7327C419.546 76.0099 411.31 81.8475 402.84 88.0354L402.466 88.2922C399.585 81.9967 394.454 77.0007 388.076 74.2819C386.795 72.5262 385.328 70.9134 383.701 69.4717C378.457 64.845 371.701 62.2876 364.702 62.2798C358.971 62.2834 353.359 63.9023 348.51 66.9499C346.81 66.6557 345.088 66.5072 343.363 66.5062C338.464 66.5153 333.643 67.7262 329.324 70.0322C324.036 68.9862 318.57 69.2589 313.413 70.8261C305.844 73.0574 299.53 78.3026 295.958 85.3267C289.29 80.4932 282.364 75.5896 275.298 70.6626C242.704 47.9893 208.614 26.4368 174.008 6.56552C167.288 2.46666 159.606 0.203793 151.733 0.00403188C145.184 -0.000144231 138.781 1.94271 133.342 5.5848C124.722 11.3885 120.447 21.7991 122.509 31.9709C125.574 47.2187 127.867 63.6341 129.903 78.1348C134.77 112.764 139.8 148.373 154.12 181.601C124.545 170.276 99.9067 160.796 88.6054 156.476C84.7214 132.588 71.8993 99.7106 43.4005 99.7106C40.0426 99.7301 36.7008 100.177 33.4564 101.042C16.6333 105.431 10.3626 114.772 8.0462 121.824C4.44291 132.868 8.49076 144.427 12.7258 152.483C7.14238 157.344 3.08072 163.708 1.02681 170.813C-0.681247 177.258 -1.10241 187.368 6.61892 198.833C15.4634 212.05 25.5713 218.495 37.551 218.495C43.2978 218.266 48.9806 217.204 54.421 215.342C57.2755 214.525 59.9663 213.731 62.6805 213.194C66.3773 213.381 81.3988 216.58 142.374 239.347C141.883 242.195 141.461 244.974 141.064 247.613C126.751 255.326 115.464 267.634 109.032 282.545C107.016 287.204 106.211 292.297 106.692 297.349C107.506 305.675 111.947 313.224 118.836 317.991L118.438 319.135C115.865 326.224 115.49 333.921 117.362 341.225C119.944 350.581 126.588 358.292 135.472 362.24L132.079 364.155C115.279 373.495 96.7011 384.05 87.2951 388.556C86.7804 387.272 86.289 385.918 85.8679 384.773C82.0072 374.359 76.1577 358.598 60.715 358.598C54.0466 358.598 47.4484 361.843 40.5226 368.521C16.1653 391.872 32.0759 412.304 38.8613 420.99C39.7973 422.181 41.0373 423.769 41.8563 424.983C40.8268 426.944 38.8613 429.793 37.3405 431.988C30.8124 441.538 20.9619 455.946 26.1094 473.272C30.6486 488.52 44.5002 498 62.2125 498C70.831 498.014 79.2995 495.75 86.757 491.438C104.188 481.164 102.387 458.748 101.311 445.461C101.194 443.944 101.053 442.122 100.96 440.581C110.506 435.234 138.396 421.34 179.553 401.773C184.692 412.32 194.685 419.683 206.297 421.48C207.939 421.73 209.597 421.854 211.258 421.854C217.968 421.866 224.535 419.909 230.14 416.227C235.848 419.248 242.167 420.94 248.624 421.177H249.981C253.752 421.178 257.505 420.676 261.142 419.682C266.623 423.273 272.831 425.609 279.322 426.524H280.375L286.459 426.851H288.799C294.619 426.057 300.363 424.784 305.973 423.045L306.253 423.325L308.968 426.174C311.682 429.093 318.069 435.958 327.897 436.915H328.247C328.856 436.915 329.441 436.915 330.002 436.915C334.164 436.957 338.219 435.6 341.514 433.062C344.94 430.317 347.305 426.472 348.206 422.181C349.985 413.556 349.37 404.61 346.428 396.309C352.277 392.666 357.05 390.868 360.934 390.868C363.31 390.902 365.64 391.519 367.72 392.666C368.941 393.328 370.093 394.11 371.159 395.001C368.82 402.543 366.48 412.187 368.937 422.228C369.818 426.491 372.149 430.318 375.535 433.062C378.857 435.693 382.993 437.088 387.234 437.008C387.795 437.008 388.38 437.008 388.989 437.008H389.293C393.943 436.504 398.368 434.744 402.092 431.918C404.29 430.253 406.327 428.384 408.175 426.337L410.655 423.699C413.606 424.6 416.627 425.256 419.687 425.66L423.15 426.01C424.148 426.01 425.139 426.01 426.121 426.01C434.58 426.112 442.859 423.573 449.8 418.748C454.316 420.303 459.061 421.092 463.839 421.083H465.196C471.653 420.846 477.972 419.154 483.68 416.133C489.293 419.817 495.868 421.774 502.586 421.761C504.152 421.759 505.716 421.642 507.265 421.41C519.428 419.533 529.802 411.617 534.805 400.395C579.495 419.986 603.01 430.751 611.784 434.977C611.784 436.471 611.784 438.223 611.644 439.647C611.152 453.05 610.357 475.467 628.233 484.97C635.227 488.603 642.998 490.493 650.882 490.481C669.437 490.481 683.99 480.137 688.015 464.142C692.273 446.559 681.768 432.595 674.818 423.348Z" transform="translate(-238 -201)" fill="white"/>
<path d="M373 30.2864C363.662 33.8757 353.928 37.7231 343.797 41.7112L334.109 45.4882C328.623 47.6699 323.09 49.8752 317.465 52.1507C306.983 56.3265 296.291 60.6431 285.553 65.0066L276.706 68.5959L274.698 69.417L267.462 72.3729L234.78 85.7449L233.146 86.4252L221.474 91.2814L218.416 92.5482L214.354 94.2373C204.619 98.2489 195.118 102.214 185.944 105.967L162.367 115.797C142.127 124.289 124.503 131.726 111.197 137.38L96.5831 143.643L92.2411 145.543C76.0637 152.581 53.5134 162.951 30.0059 174C30.0059 172.029 30.1927 170.035 30.2627 168.088C30.2627 167.267 30.2627 166.446 30.2627 165.742C30.2795 164.092 30.1545 162.444 29.8892 160.816C29.8892 160.253 29.6558 159.713 29.5157 159.15L29.2356 158.235C24.0054 162.641 18.0049 166.03 11.5408 168.229C7.85242 169.472 3.39371 170.246 0.965924 165.461C0.177253 163.821 -0.138162 161.993 0.0555064 160.182C0.335635 156.968 0.639108 153.754 0.919236 150.54C25.9907 136.652 52.4629 122.577 74.5464 113.005C76.7174 112.067 78.8183 111.152 80.8959 110.307C86.0316 108.196 92.9648 105.381 101.322 102.049C111.873 97.8032 124.666 92.6655 139.116 86.9883L166.032 76.2203L188.956 67.1884C209.965 58.9306 232.072 50.2036 254.319 41.5001L262.629 38.2392L327.689 12.7151L360.184 0L361.001 1.19644C361.631 2.13483 362.262 3.09667 362.822 4.05851C363.382 5.02036 363.662 5.41917 364.059 6.0995C364.456 6.77983 364.97 7.71821 365.39 8.44546C365.81 9.17271 366.324 10.2519 366.767 11.1902C367.211 12.1286 367.654 13.0435 368.051 13.9819L368.261 14.4746C368.635 15.3661 368.985 16.2575 369.312 17.1724C369.638 18.0874 370.082 19.3307 370.456 20.4099C370.829 21.489 370.969 22.0051 371.203 22.7558C371.809 25.2895 372.44 27.7293 373 30.2864Z" transform="translate(-68 4)" fill="#3E202D"/>
<path d="M13.9436 56.9C11.3836 59.6987 8.42807 62.5923 4.6347 62.948C3.69358 63.1079 2.72808 62.8958 1.93512 62.3551C1.23726 61.6793 0.77893 60.7868 0.631877 59.8173C-1.27644 51.7057 1.49295 43.2147 4.2158 35.4589C6.93865 27.7031 9.84767 19.2358 12.7334 11.148C18.4351 -4.93279 38.519 -3.41484 39.9386 14.3974C41.1953 29.316 22.8336 47.2942 13.9436 56.9Z" transform="translate(146 160)" fill="#3E202D"/>
<path d="M36.9903 18.0309C36.2392 8.32283 30.4653 1.23594 22.2974 0.119508C15.3175 -0.705751 8.52156 2.79366 4.95238 9.05094C4.05503 10.5336 3.3153 12.1123 2.7461 13.7594L0 21.6472C0.96231 22.4966 1.90115 23.3946 2.81652 24.3169L5.16362 26.7439L5.56262 27.1808C5.56262 26.9623 5.70345 26.7439 5.79733 26.5012C6.97088 23.1034 8.14443 19.6813 9.34145 16.2835C9.7841 14.9647 10.4001 13.7152 11.1722 12.5701C13.1333 9.37596 16.5039 7.40128 20.1616 7.30348C20.5524 7.27861 20.9443 7.27861 21.3351 7.30348C25.114 7.83743 29.3622 11.0654 29.949 18.5891C30.0535 22.5882 29.1216 26.5434 27.2498 30.0446C25.3502 33.8838 23.0859 37.518 20.4902 40.8934C21.1004 41.2817 21.7107 41.6215 22.3209 41.9613C22.9311 42.3011 23.5414 42.5681 24.1282 42.835C25.1296 43.2719 26.1154 43.6602 27.0855 44C29.0188 41.3382 30.7828 38.5493 32.3665 35.6511C35.5342 30.3686 37.1412 24.2446 36.9903 18.0309Z" transform="translate(151 154)" fill="#3E202D"/>
<path d="M372.99 163.273C372.966 163.589 372.919 163.903 372.85 164.212C372.783 164.67 372.665 165.118 372.5 165.55C372.428 165.805 372.342 166.056 372.243 166.301L372.033 166.771C371.813 167.218 371.539 167.636 371.216 168.015C370.753 168.578 370.181 169.041 369.535 169.376C369.287 169.512 369.029 169.629 368.764 169.728L367.901 169.986C366.922 170.185 365.914 170.185 364.936 169.986L363.932 169.752C356.636 167.619 349.862 163.982 344.042 159.072C343.9 159.479 343.783 159.894 343.691 160.316C343.599 160.623 343.529 160.937 343.481 161.255C343.481 161.56 343.481 161.888 343.318 162.193C343.154 162.499 343.154 163.437 343.108 164.071C343.061 164.705 343.108 164.775 343.108 165.127C343.108 165.48 343.108 166.254 343.108 166.817C343.108 168.367 343.108 169.916 343.294 171.512C343.294 172.333 343.294 173.155 343.294 173.859C343.319 173.903 343.319 173.956 343.294 174L302.627 156.231C294.409 152.664 286.285 149.19 277.974 145.552C274.799 144.143 271.647 142.782 268.472 141.42L266.792 140.693C247.532 132.36 228.738 124.262 211.603 117.009L187.3 106.705C176.702 102.245 167.177 98.2784 159.122 94.9688C158.765 94.8001 158.399 94.6513 158.025 94.5229L151.722 91.9409C147.426 90.204 143.738 88.7252 140.726 87.5751H140.586C121.746 80.3221 86.7049 66.1918 48.6752 51.1696L44.5431 49.55C29.8121 43.7289 14.7076 37.8138 0 32.1805C1.21309 26.1985 3.0036 20.3496 5.3461 14.7171C5.81301 13.6374 6.30326 12.5577 6.84021 11.5014C6.84021 11.2902 7.02697 11.0789 7.1437 10.8677C7.51723 10.0931 7.9141 9.31849 8.33432 8.52044L9.03468 7.27641C10.4533 4.76432 12.0121 2.33497 13.7038 0L40.2475 10.1635C83.4599 26.7349 126.626 43.0247 150.461 51.7094C159.986 55.1599 173.807 60.7932 190.405 67.8584C197.409 70.8393 204.973 74.102 212.91 77.5759C219.914 80.6038 227.174 83.796 234.668 87.1056L237.563 88.3966C250.963 94.3116 264.947 100.579 279.141 106.94L289.88 111.634L295.95 114.732L301.039 117.08L340.726 135.013L371.986 149.096C372.266 152.147 372.523 155.199 372.803 158.25C372.803 158.72 372.803 159.212 372.803 159.705C372.964 160.887 373.026 162.081 372.99 163.273Z" transform="translate(-68 4)" fill="#3E202D"/>
<path d="M449.793 268.396C449.817 268.597 449.817 268.8 449.793 269.001C449.736 269.178 449.666 269.349 449.582 269.514C449.51 269.674 449.415 269.823 449.3 269.956L449.136 270.166C449.012 270.308 448.87 270.433 448.714 270.539L448.433 270.725L447.94 270.958L447.049 271.261C446.82 271.329 446.584 271.376 446.346 271.4H445.619H444.892H443.814L421.75 270.958C422.383 271.61 422.993 272.285 423.556 272.961C424.751 274.312 425.9 275.709 426.979 277.13C428.057 278.551 429.112 279.995 430.097 281.508C430.355 281.881 430.613 282.254 430.847 282.65L431.551 283.791C432.043 284.56 432.512 285.328 432.934 286.12C433.356 286.912 433.825 287.681 434.247 288.449C434.669 289.218 435.115 290.126 435.513 290.965C435.912 291.803 436.146 292.315 436.451 292.991C436.756 293.666 437.108 294.481 437.413 295.32C437.717 296.158 438.093 297.02 438.421 297.859C438.585 298.278 438.749 298.72 438.89 299.163C439.03 299.605 439.195 300.025 439.335 300.444C439.627 301.275 439.87 302.123 440.062 302.983C440.157 303.318 440.219 303.661 440.25 304.007C440.272 304.162 440.272 304.319 440.25 304.473C440.273 304.845 440.273 305.219 440.25 305.591C440.258 306.267 440.171 306.942 439.992 307.594C439.68 308.753 439.037 309.796 438.139 310.599C437.924 310.805 437.697 310.999 437.46 311.181C437.258 311.334 437.046 311.474 436.826 311.6C436.55 311.778 436.26 311.934 435.959 312.066L435.091 312.415C434.622 312.58 434.145 312.72 433.661 312.835C433.145 312.835 432.629 313.021 432.09 313.091C431.551 313.161 431.059 313.091 430.543 313.091C428.699 313.088 426.869 312.781 425.126 312.182C419.616 310.226 414.552 306.476 408.714 306.43C409.323 313.044 409.933 319.682 410.519 326.297C410.8 329.324 411.058 332.352 411.34 335.38C411.34 335.846 411.34 336.335 411.34 336.824C411.445 338.041 411.445 339.264 411.34 340.481C411.316 340.794 411.269 341.106 411.199 341.412C411.132 341.866 411.014 342.312 410.847 342.74C410.776 342.993 410.689 343.242 410.589 343.485L410.378 343.951C410.158 344.395 409.882 344.81 409.558 345.185C409.093 345.745 408.519 346.204 407.87 346.536C407.62 346.671 407.362 346.788 407.096 346.886L406.228 347.142C405.246 347.339 404.233 347.339 403.251 347.142L402.242 346.909C394.915 344.793 388.111 341.184 382.266 336.312C382.124 336.716 382.006 337.128 381.914 337.546C381.821 337.851 381.751 338.163 381.703 338.478C381.703 338.78 381.703 339.107 381.539 339.409C381.375 339.712 381.375 340.644 381.328 341.273C381.281 341.901 381.328 341.971 381.328 342.321C381.328 342.67 381.328 343.439 381.328 343.998C381.328 345.535 381.328 347.072 381.515 348.656C381.515 349.471 381.515 350.286 381.515 350.985C381.54 351.028 381.54 351.081 381.515 351.125L388.549 354.176C388.561 354.408 388.561 354.642 388.549 354.874C388.221 363.934 383.203 374.345 372.91 375.836C372.135 375.953 371.35 376.008 370.566 375.999C362.054 375.999 356.966 369.594 352.863 364.354C352.769 364.224 352.667 364.1 352.558 363.981C348.025 370.65 340.601 374.816 332.511 375.23H331.738C325.248 375.183 319.02 372.685 314.317 368.243C314.012 367.964 313.707 367.661 313.426 367.358C310.102 371.426 305.189 373.892 299.92 374.136H299.17C297.113 374.123 295.071 373.785 293.121 373.134C291.373 372.584 289.709 371.801 288.173 370.805C286.635 369.796 285.198 368.642 283.883 367.358C281.361 364.851 279.092 362.105 277.107 359.16C276.075 357.716 275.114 356.365 274.082 355.107C271.069 351.454 267.385 348.403 263.226 346.117C261.125 344.937 258.91 343.97 256.614 343.229C252.846 342.117 249.008 341.253 245.125 340.644C238.103 339.762 231.275 337.74 224.914 334.658C218.543 337.737 211.708 339.759 204.679 340.644C200.796 341.253 196.958 342.117 193.19 343.229C191.941 343.623 190.72 344.098 189.533 344.65C184.175 347.025 179.448 350.605 175.722 355.107C174.714 356.365 173.729 357.716 172.698 359.16C171.248 361.27 169.682 363.299 168.008 365.239C166.166 367.375 164.036 369.248 161.678 370.805C158.363 373.027 154.469 374.242 150.47 374.299H149.72C144.458 374.055 139.552 371.588 136.238 367.521C135.23 368.553 134.14 369.504 132.979 370.363C131.69 368.302 130.688 366.077 130.001 363.748L129.79 363.934L128.5 364.936C128.138 365.203 127.763 365.452 127.375 365.681C126.453 366.257 125.48 366.749 124.468 367.149C124.187 367.277 123.897 367.386 123.6 367.475C123.259 367.615 122.906 367.724 122.545 367.801C122.223 367.908 121.894 367.993 121.56 368.057L120.669 368.22C120.261 368.31 119.845 368.365 119.427 368.383C118.966 368.406 118.504 368.406 118.043 368.383H117.527C108.365 367.817 100.938 360.793 99.9188 351.73C98.8703 352.332 97.8948 353.051 97.0114 353.873C96.8049 354.039 96.6091 354.218 96.4252 354.409L95.7687 355.037L95.1356 355.713C94.7136 356.155 94.315 356.621 93.9164 357.087C90.4697 361.116 87.4685 365.798 83.5763 367.917C83.388 368.024 83.1921 368.118 82.9902 368.197C82.7641 368.316 82.5289 368.417 82.2867 368.499L81.5599 368.732L80.9503 368.895H80.0358H79.2387C78.8095 368.929 78.3783 368.929 77.9491 368.895C71.7591 368.057 68.5703 360.883 68.3828 354.688C68.3828 353.78 68.3828 352.848 68.3828 351.94C68.3828 349.983 68.5703 348.004 68.6407 346.07C68.6407 345.255 68.6407 344.44 68.6407 343.741C68.6576 342.103 68.5321 340.467 68.2655 338.85C68.2655 338.291 68.0311 337.756 67.8904 337.197L67.609 336.288C62.3558 340.662 56.3289 344.027 49.8363 346.21C46.1317 347.445 41.6534 348.213 39.2149 343.462C38.4228 341.834 38.1059 340.019 38.3005 338.221C38.5818 335.031 38.8866 331.84 39.168 328.649L41.2079 306.336C35.3462 306.336 30.2816 310.133 24.7951 312.089C20.7591 313.643 16.2275 313.265 12.5089 311.064C12.2363 310.873 11.9778 310.663 11.7352 310.436C11.6558 310.383 11.5912 310.311 11.5476 310.226C11.2743 309.975 11.0305 309.693 10.8208 309.388C10.4138 308.787 10.1052 308.127 9.90634 307.431C9.43836 305.024 9.70789 302.534 10.6801 300.281C14.334 289.324 20.3422 279.286 28.2887 270.865L6.20174 271.307H4.6777C4.09961 271.282 3.52582 271.197 2.96608 271.051L2.49714 270.911C2.21382 270.819 1.93921 270.702 1.6765 270.562L1.30135 270.329C0.949761 270.092 0.653849 269.782 0.43382 269.421C0.43382 269.234 0.246245 269.048 0.152458 268.815C0.0786631 268.588 0.0314572 268.354 0.0117769 268.116C-0.0416592 267.397 0.087328 266.677 0.386926 266.02C4.68338 256.238 12.2439 248.226 21.7939 243.335C25.0765 241.681 28.7107 240.284 30.8913 237.326C32.538 234.689 33.5045 231.689 33.7049 228.592C34.5959 222.56 35.5103 216.504 36.7764 210.565C37.9948 204.629 39.7931 198.826 42.1458 193.237C42.6147 192.165 43.1071 191.094 43.6463 190.046C43.6463 189.836 43.8339 189.626 43.9512 189.417C44.3263 188.648 44.7249 187.88 45.1469 187.088L45.8504 185.853C47.2751 183.361 48.8407 180.95 50.5397 178.633C51.0555 177.888 51.5948 177.143 52.1576 176.304C54.0802 173.742 56.1435 171.297 58.3006 168.898L57.1517 167.71C26.2253 118.799 26.6708 57.6844 15.2288 1.20435C15.5306 0.994712 15.8526 0.815275 16.1901 0.668664C16.4401 0.555079 16.6988 0.461615 16.9638 0.389175C17.1605 0.313185 17.3649 0.258522 17.5735 0.22614C17.6895 0.202286 17.8092 0.202286 17.9252 0.22614H18.23H18.7693C18.9482 0.202154 19.1296 0.202154 19.3085 0.22614H19.7775L21.1374 0.365884C21.7411 0.461315 22.3367 0.60145 22.9193 0.785118L24.1151 1.20435C25.7373 1.85741 27.3053 2.63617 28.8045 3.53343C32.7748 5.78486 36.7295 8.06736 40.6686 10.3809C70.618 27.8645 99.8641 46.4971 128.407 66.2787C136.472 71.8685 144.476 77.5359 152.416 83.2809C157.41 86.9143 165.969 91.1532 170.377 96.6033C178.63 93.9248 186.93 91.3628 195.113 88.1953C192.44 84.1893 189.908 80.0901 187.587 75.8745C186.719 74.2674 185.828 72.2877 187.375 70.7738C187.801 70.3667 188.326 70.0776 188.9 69.9353C189.545 69.7359 190.217 69.6339 190.893 69.6326C197.294 69.6326 201.866 78.9489 208.806 79.6942C208.053 76.775 207.613 73.7849 207.493 70.7738C207.363 68.5999 209.032 66.7334 211.221 66.6048C213.409 66.4761 215.288 68.1341 215.418 70.308C215.652 72.474 215.793 74.6634 215.934 76.8294C219.83 72.217 224.182 68.0037 228.923 64.2524C229.995 63.24 231.37 62.6022 232.839 62.4357C233.559 62.4297 234.255 62.6962 234.785 63.181C235.748 64.1005 236.18 65.4403 235.934 66.7445C235.295 71.0885 233.94 75.2983 231.924 79.2051C235.353 76.2926 239.223 73.9347 243.39 72.2178C243.839 72.0447 244.315 71.9502 244.797 71.9384C245.038 71.9026 245.283 71.9026 245.524 71.9384C248.9 72.7535 247.306 77.8775 245.289 80.0668C244 81.3522 243.385 83.1593 243.624 84.9579C244 87.287 245.5 87.4966 246.93 87.7528C255.027 89.2517 263.041 91.1641 270.94 93.4823C275.629 89.4064 282.007 86.0293 286.087 83.0713C294.027 77.3263 302.038 71.6589 310.12 66.0691C342.086 43.9739 374.966 23.2607 408.761 3.92937L409.722 3.37039C411.221 2.47313 412.789 1.69438 414.411 1.04132C414.81 0.87828 415.208 0.761827 415.607 0.622082C416.765 0.242082 417.975 0.0379291 419.194 0.0165228H419.757H420.296H420.601C420.717 -0.00550761 420.837 -0.00550761 420.953 0.0165228C421.161 0.0489057 421.366 0.103568 421.563 0.179558C421.828 0.251999 422.086 0.345462 422.336 0.459047C422.674 0.605658 422.996 0.785096 423.298 0.994734C422.922 2.81141 422.571 4.62809 422.219 6.44477C421.867 8.26145 421.633 9.58902 421.352 11.1029C421.07 12.6168 420.883 13.7348 420.672 15.0623C420.461 16.3899 420.156 18.0203 419.921 19.5109L419.077 24.7746C418.608 27.7791 418.163 30.8069 417.717 33.8347C417.037 38.4928 416.381 42.9414 415.748 47.4831C415.49 49.2299 415.255 50.9767 414.997 52.7002C414.505 56.1705 414.013 59.6874 413.497 63.1112C413.122 65.743 412.723 68.3283 412.324 70.9369L411.551 75.758C411.199 78.0871 410.824 80.1833 410.449 82.3959C410.074 84.6085 409.698 86.7978 409.276 88.9872C408.784 91.5492 408.292 94.1111 407.776 96.6498C407.494 98.024 407.19 99.3981 406.908 100.772C406.158 104.266 405.361 107.76 404.564 111.207C404.071 113.186 403.555 115.143 402.993 117.099C402.617 118.45 402.242 119.778 401.844 121.128C401.445 122.479 401.07 123.737 400.671 125.041C400.627 125.215 400.573 125.386 400.507 125.554C400.132 126.741 399.757 127.883 399.358 129.094C398.749 130.957 398.116 132.797 397.436 134.614C397.084 135.662 396.685 136.687 396.287 137.688C396.246 137.84 396.191 137.989 396.123 138.131L395.654 139.318C394.95 141.089 394.224 142.859 393.473 144.629C392.465 146.958 391.41 149.287 390.261 151.616C389.698 152.781 389.136 153.945 388.549 155.063C387.963 156.181 387.377 157.392 386.744 158.487C386.111 159.581 385.525 160.816 384.892 161.864C385.478 162.423 386.064 163.005 386.627 163.587C388.971 165.917 391.222 168.315 393.379 170.784C393.989 171.46 394.575 172.158 395.138 172.857C395.701 173.556 396.263 174.231 396.826 174.953C397.952 176.351 399.03 177.795 400.038 179.239L400.859 180.427C401.492 181.358 402.125 182.313 402.688 183.268C403.251 184.223 403.532 184.619 403.931 185.294C404.329 185.97 404.845 186.901 405.267 187.623C405.689 188.346 406.205 189.417 406.65 190.349C407.096 191.28 407.541 192.188 407.94 193.12L408.151 193.609C408.526 194.494 408.878 195.379 409.206 196.288C409.534 197.196 409.98 198.43 410.355 199.502C410.73 200.573 410.871 201.086 411.105 201.831C411.832 204.16 412.465 206.652 413.028 209.098C414.458 215.456 415.373 221.954 416.381 228.429C416.381 228.802 416.381 229.197 416.545 229.57C416.718 230.731 416.953 231.881 417.248 233.017C417.64 234.504 418.299 235.909 419.194 237.163L419.405 237.442C419.614 237.714 419.841 237.971 420.085 238.211L420.953 239.003C421.099 239.14 421.256 239.264 421.422 239.376C421.609 239.539 421.797 239.655 421.985 239.795L422.571 240.167C423.01 240.475 423.472 240.747 423.954 240.983C424.379 241.238 424.817 241.472 425.267 241.681C426.275 242.194 427.307 242.66 428.292 243.172C430.657 244.389 432.915 245.799 435.044 247.388C435.748 247.923 436.451 248.482 437.131 249.064C437.811 249.647 438.773 250.509 439.476 251.254C440.179 251.999 441.563 253.397 442.524 254.515L443.907 256.261C444.836 257.434 445.69 258.663 446.463 259.941L447.331 261.362C448.192 262.818 448.974 264.319 449.675 265.857C449.725 265.962 449.764 266.071 449.793 266.183C449.889 266.398 449.952 266.625 449.98 266.859C450.037 267.379 449.972 267.904 449.793 268.396Z" transform="translate(-105 -176)" fill="#D1D1D1"/>
<path fill-rule="evenodd" clip-rule="evenodd" d="M268.534 10.5039C268.626 10.1467 268.716 9.78857 268.806 9.42957L268.534 10.5508V10.5039ZM270.091 3.8927C269.687 5.7511 269.25 7.59717 268.806 9.42957C269.264 7.59546 269.695 5.74072 270.091 3.8927ZM270.878 0C270.638 1.30396 270.373 2.60132 270.091 3.8927C270.371 2.58862 270.634 1.28784 270.878 0ZM260.8 74.7462C261.925 76.153 263.003 77.6067 264.011 79.0603L264.831 80.2561L263.987 79.0837C262.979 77.6067 261.901 76.153 260.8 74.7462ZM270.921 90.9406C270.983 91.0691 271.045 91.198 271.106 91.3273C271.186 91.4952 271.264 91.6638 271.341 91.8326C271.527 92.2473 271.708 92.6642 271.886 93.0809L271.901 93.1101L271.909 93.1279L272.007 93.3639C271.969 93.2842 271.928 93.2054 271.886 93.1279C271.487 92.1902 271.065 91.2523 270.62 90.3379C270.723 90.5377 270.823 90.7386 270.921 90.9406ZM271.901 93.1101C271.955 93.2086 272.005 93.3091 272.051 93.4111L271.909 93.0809C271.511 92.1432 271.089 91.2053 270.62 90.2909C270.868 90.799 271.108 91.3141 271.341 91.8326C271.534 92.257 271.72 92.6836 271.901 93.1101ZM313.954 168.531C313.96 168.628 313.963 168.725 313.963 168.822C313.964 168.928 313.96 169.034 313.954 169.14C313.978 168.938 313.978 168.733 313.954 168.531ZM313.954 168.531C313.97 168.432 313.982 168.333 313.99 168.233C314 168.097 314.002 167.959 313.997 167.823C313.991 167.683 313.977 167.544 313.954 167.405V167.429C314.013 167.794 314.013 168.166 313.954 168.531ZM313.649 166.421C312.949 164.872 312.167 163.361 311.306 161.895C312.126 163.372 312.876 164.873 313.649 166.421ZM313.698 166.496C313.683 166.47 313.667 166.445 313.649 166.421V166.397C313.667 166.429 313.683 166.463 313.698 166.496ZM313.698 166.496C313.742 166.575 313.773 166.66 313.79 166.749C313.766 166.662 313.735 166.578 313.698 166.496ZM304.134 208.155C303.809 209.31 303.177 210.355 302.306 211.179C303.203 210.371 303.846 209.321 304.157 208.155C304.336 207.498 304.423 206.819 304.415 206.138C304.413 206.812 304.318 207.483 304.134 208.131V208.155ZM174.577 261.098L174.722 260.867L174.867 260.628L174.988 260.426C175.072 260.283 175.154 260.139 175.234 259.994L174.953 259.314C174.917 259.481 174.87 259.645 174.812 259.806V260.205C174.763 260.351 174.712 260.497 174.661 260.642C174.571 260.897 174.477 261.151 174.38 261.404C174.322 261.493 174.264 261.581 174.205 261.669L174.131 261.78L173.992 261.987C173.901 262.111 173.811 262.24 173.718 262.37C173.67 262.437 173.622 262.504 173.572 262.57L173.51 262.652C173.476 262.696 173.441 262.74 173.406 262.784C173.225 263.058 173.021 263.317 172.796 263.558C172.715 263.656 172.631 263.752 172.546 263.845L172.362 264.044C172.287 264.125 172.212 264.204 172.14 264.284C171.634 264.874 171.06 265.401 170.429 265.855C170.277 265.988 170.112 266.106 169.937 266.207C169.75 266.381 169.537 266.524 169.304 266.629L169.047 266.77L168.945 266.833C168.9 266.86 168.855 266.887 168.81 266.912C168.723 266.962 168.635 267.008 168.546 267.053C168.411 267.12 168.273 267.182 168.133 267.239C167.815 267.384 167.486 267.502 167.148 267.59L166.727 267.731C166.462 267.829 166.187 267.892 165.906 267.919L165.273 268.036C165.125 268.046 164.978 268.051 164.829 268.053C164.72 268.055 164.611 268.054 164.502 268.051L164.351 268.046L164.285 268.042L164.172 268.036C163.035 268.075 161.898 267.949 160.797 267.661C160.479 267.589 160.165 267.495 159.859 267.379L158.969 267.051L158.055 266.653L157.211 266.184L156.368 265.668C156.037 265.449 155.713 265.219 155.398 264.979C155.154 264.793 154.915 264.6 154.68 264.402C154.616 264.353 154.551 264.303 154.487 264.253L154.385 264.172L154.269 264.078L154.161 263.99C153.938 263.805 153.721 263.614 153.508 263.417C153.227 263.159 152.922 262.878 152.665 262.596L152.008 261.916C151.141 260.979 150.344 259.994 149.665 258.986C149.172 258.376 148.704 257.72 148.259 257.087L145.915 253.968C145.53 253.445 145.136 252.921 144.734 252.403L144.628 252.266L144.479 252.076L144.287 251.832L144.14 251.647L143.876 251.319C143.588 250.964 143.305 250.629 143.021 250.307C142.609 249.842 142.196 249.404 141.767 248.974C141.441 248.605 141.097 248.253 140.735 247.919C140.196 247.38 139.657 246.864 139.095 246.372C138.882 246.185 138.592 245.932 138.267 245.652C137.974 245.4 137.653 245.127 137.333 244.861C137.07 244.642 136.808 244.429 136.564 244.238C135.697 243.558 134.572 242.761 133.517 242.081H133.353L131.455 240.932L130.47 240.393C129.439 239.83 128.361 239.291 127.283 238.822C125.932 238.212 124.547 237.679 123.135 237.228C119.184 235.951 114.982 235.186 110.796 234.423C102.988 233.001 95.2344 231.589 89.269 226.888C83.2886 231.589 75.54 233.001 67.7373 234.423C63.5537 235.186 59.3545 235.951 55.4038 237.228L53.9741 237.744C52.8262 238.138 51.6997 238.592 50.5991 239.103C44.4155 241.954 38.9644 246.18 34.6626 251.459C34.4453 251.72 34.2344 251.988 34.0264 252.258C33.8608 252.473 33.6968 252.691 33.5327 252.908C33.3477 253.153 33.1626 253.398 32.9751 253.64C32.5068 254.269 32.0459 254.944 31.6016 255.595L31.5942 255.605C31.2637 256.091 30.9409 256.563 30.6313 256.993L30.4712 257.215C29.8364 258.097 29.4116 258.687 28.8267 259.337C28.0425 260.357 27.2056 261.336 26.3188 262.268C26.0674 262.537 25.8096 262.8 25.5459 263.056C25.3311 263.265 25.1123 263.469 24.8896 263.67C24.6997 263.84 24.5068 264.008 24.311 264.172C24.2002 264.265 24.0884 264.357 23.9756 264.449C23.8213 264.577 23.6646 264.703 23.5059 264.827C23.3589 264.941 23.21 265.053 23.0596 265.162C22.8071 265.345 22.5498 265.522 22.2881 265.691C21.8428 265.973 21.3975 266.254 20.9287 266.488C20.5264 266.707 20.1113 266.903 19.6865 267.075L18.7959 267.403C18.4902 267.518 18.1772 267.612 17.8584 267.684C16.7661 267.975 15.6367 268.101 14.5073 268.059C6.81982 267.731 3.16406 260.228 0.445312 253.663C0.344238 254.345 0.195312 255.019 0 255.68V255.961C0.133301 257.796 0.42334 259.616 0.867188 261.401L1.19531 262.479C1.61865 263.93 2.2002 265.329 2.92969 266.653L3.42188 267.45C4.21387 268.709 5.17627 269.853 6.28076 270.849C9.16504 273.35 12.8042 274.811 16.6162 274.999H17.1553C23.5806 275.037 29.9077 273.422 35.5298 270.31L35.5371 270.307C35.8623 270.144 36.1875 269.981 36.4902 269.794C37.8535 269.014 39.1685 268.153 40.4277 267.215C41.3184 266.043 42.1387 264.871 42.7715 263.862C43.4043 262.854 44.6699 261.213 45.5371 260.135C48.4341 256.582 52.0952 253.729 56.2476 251.788C57.3081 251.272 58.4048 250.833 59.5283 250.475H59.7158C60.7705 250.146 61.8955 249.842 63.0908 249.537C76.7075 240.534 93.5581 234.086 111.862 243.511C115.64 245.509 119.152 247.974 122.314 250.85C123.275 251.67 124.213 252.538 125.127 253.429C126.162 254.044 127.156 254.725 128.104 255.469C129.842 256.845 131.416 258.418 132.791 260.158C133.612 261.157 134.476 262.367 135.361 263.608L135.509 263.816C137.66 265.914 140.015 267.791 142.54 269.419C143.149 269.794 143.759 270.123 144.368 270.451C144.978 270.779 145.587 271.037 146.173 271.295C147.173 271.717 148.157 272.092 149.125 272.42C151.559 273.256 154.085 273.791 156.649 274.015H159.273C164.888 273.758 169.93 270.497 172.468 265.48C173.203 264.169 173.842 262.807 174.38 261.404C174.446 261.302 174.512 261.2 174.577 261.098ZM275.448 236.172V237.626C275.542 237.296 275.51 236.966 275.479 236.643C275.463 236.484 275.448 236.327 275.448 236.172ZM287.564 173.337L285.736 171.321H285.783C286.416 171.977 287.025 172.657 287.564 173.337ZM283.158 137.488C282.263 136.226 281.604 134.812 281.213 133.315C281.576 134.818 282.229 136.235 283.135 137.488L283.369 137.769L283.158 137.488ZM280.328 128.577L280.346 128.696V128.719C280.372 128.925 280.404 129.139 280.437 129.348C280.463 129.519 280.489 129.686 280.51 129.844C280.322 129.469 280.322 129.071 280.322 128.696C280.164 127.672 280.007 126.648 279.851 125.624L279.848 125.606C279.012 120.132 278.174 114.645 276.971 109.259C276.628 107.742 276.267 106.216 275.873 104.724C276.092 105.537 276.303 106.353 276.504 107.171L276.661 107.814C276.775 108.287 276.886 108.761 276.995 109.235C278.416 115.597 279.374 122.098 280.328 128.577ZM275.873 104.724C275.761 104.312 275.648 103.902 275.532 103.492C275.383 102.967 275.23 102.443 275.073 101.92C275.356 102.834 275.621 103.772 275.873 104.724Z" transform="translate(31 -75)" fill="#3E202D"/>
<path d="M182.853 269.219C182.878 269.421 182.878 269.625 182.853 269.826C182.797 270.003 182.726 270.175 182.642 270.34C182.571 270.501 182.476 270.651 182.36 270.784L182.196 270.994C182.071 271.136 181.929 271.262 181.773 271.368L181.491 271.555L180.997 271.788L180.105 272.092C179.875 272.161 179.639 272.208 179.4 272.232H178.672H177.944H176.863L154.758 271.788C155.392 272.442 156.003 273.12 156.567 273.797C157.765 275.152 158.916 276.553 159.997 277.978C161.077 279.403 162.134 280.851 163.121 282.37C163.379 282.743 163.638 283.117 163.873 283.514L164.577 284.659C165.071 285.43 165.54 286.2 165.963 286.995C166.386 287.789 166.856 288.56 167.279 289.33C167.702 290.101 168.148 291.012 168.547 291.853C168.947 292.694 169.182 293.208 169.487 293.885C169.792 294.563 170.145 295.38 170.45 296.221C170.755 297.062 171.131 297.926 171.46 298.767C171.625 299.187 171.789 299.631 171.93 300.075C172.071 300.519 172.235 300.939 172.376 301.36C172.668 302.194 172.912 303.044 173.105 303.906C173.199 304.242 173.262 304.586 173.292 304.934C173.315 305.089 173.315 305.246 173.292 305.401C173.316 305.774 173.316 306.149 173.292 306.522C173.301 307.2 173.214 307.876 173.034 308.531C172.722 309.693 172.077 310.739 171.178 311.544C170.962 311.751 170.735 311.946 170.497 312.128C170.295 312.281 170.083 312.422 169.863 312.548C169.586 312.727 169.295 312.883 168.994 313.016L168.124 313.366C167.654 313.531 167.176 313.671 166.692 313.786C166.175 313.786 165.658 313.973 165.118 314.043C164.577 314.113 164.084 314.043 163.567 314.043C161.72 314.041 159.886 313.733 158.141 313.132C152.62 311.17 147.546 307.41 141.697 307.363C142.308 313.997 142.919 320.654 143.506 327.287C143.788 330.324 144.046 333.36 144.328 336.397C144.328 336.864 144.328 337.355 144.328 337.845C144.434 339.065 144.434 340.292 144.328 341.512C144.304 341.827 144.257 342.139 144.187 342.447C144.12 342.902 144.002 343.349 143.835 343.778C143.763 344.032 143.677 344.281 143.576 344.526L143.365 344.993C143.144 345.438 142.868 345.854 142.543 346.231C142.077 346.792 141.502 347.252 140.852 347.586C140.602 347.721 140.343 347.838 140.076 347.936L139.207 348.193C138.223 348.391 137.208 348.391 136.224 348.193L135.214 347.959C127.872 345.837 121.056 342.218 115.199 337.331C115.057 337.737 114.94 338.15 114.847 338.569C114.754 338.875 114.684 339.188 114.636 339.504C114.636 339.807 114.636 340.134 114.471 340.438C114.307 340.742 114.307 341.676 114.26 342.307C114.213 342.937 114.26 343.007 114.26 343.358C114.26 343.708 114.26 344.479 114.26 345.039C114.26 346.581 114.26 348.123 114.448 349.711C114.448 350.529 114.448 351.346 114.448 352.047C114.473 352.09 114.473 352.144 114.448 352.187C114.448 353.355 114.448 354.523 114.448 355.691C114.43 356.341 114.368 356.988 114.26 357.63C114.232 358.024 114.169 358.414 114.072 358.797C114.024 359.144 113.953 359.488 113.86 359.825C113.791 360.174 113.697 360.518 113.579 360.853C113.457 361.357 113.292 361.849 113.085 362.324C113.039 362.505 112.968 362.678 112.874 362.838C112.686 363.301 112.475 363.753 112.24 364.193L112.028 364.567C111.792 364.993 111.533 365.406 111.253 365.805C110.823 366.425 110.327 366.996 109.773 367.51C109.636 367.655 109.487 367.788 109.327 367.907C109.181 368.044 109.024 368.169 108.857 368.281C108.307 368.714 107.698 369.068 107.048 369.332C106.708 369.487 106.354 369.612 105.991 369.706C105.62 369.806 105.244 369.884 104.863 369.939C104.169 370.02 103.467 370.02 102.773 369.939H101.927C100.996 369.752 100.1 369.421 99.2726 368.958C99.0848 368.871 98.9042 368.77 98.7323 368.655C98.5418 368.554 98.361 368.437 98.192 368.304C97.8323 368.068 97.4871 367.811 97.1584 367.533C96.461 366.962 95.8019 366.345 95.1852 365.688C94.9033 365.408 94.6449 365.104 94.3865 364.8C92.9066 363.165 91.5206 361.32 90.0642 359.522L88.8661 358.097L88.2554 357.396C87.8571 356.922 87.4337 356.47 86.9868 356.041C85.9654 354.964 84.8225 354.008 83.5807 353.191C83.3489 353.019 83.1056 352.863 82.8524 352.724C82.7323 354.154 82.4162 355.561 81.9128 356.905C81.7484 357.373 81.5604 357.816 81.3725 358.237C80.9895 359.111 80.5255 359.948 79.9866 360.736C79.4698 361.565 78.8802 362.347 78.2247 363.072C77.8724 363.469 77.473 363.889 77.0737 364.263C73.9203 367.347 69.7445 369.182 65.3282 369.425C64.6008 369.472 63.871 369.472 63.1436 369.425C62.5043 369.358 61.8691 369.257 61.2408 369.122C60.2964 368.913 59.3697 368.632 58.4689 368.281C58.046 368.11 57.6232 367.923 57.2004 367.72C55.6681 366.99 54.2386 366.063 52.9485 364.964C52.5257 364.614 52.1263 364.24 51.7505 363.866C51.3033 363.421 50.8799 362.954 50.482 362.465C50.274 362.239 50.0854 361.997 49.9182 361.741C49.7325 361.501 49.56 361.251 49.4014 360.993C49.2135 360.736 49.049 360.456 48.8846 360.176C48.7201 359.895 48.3678 359.241 48.1329 358.751C47.898 358.26 47.71 357.77 47.5221 357.279C47.1516 356.265 46.8841 355.216 46.7234 354.149C45.9065 356.247 44.9571 358.291 43.881 360.269C43.5052 360.946 43.0823 361.6 42.636 362.254C42.4481 362.511 42.2602 362.792 42.0487 363.049C41.8673 363.322 41.6629 363.58 41.438 363.819C41.2266 364.076 40.9916 364.31 40.7802 364.544C40.2726 365.13 39.697 365.656 39.0654 366.109C38.9125 366.241 38.7473 366.358 38.5721 366.459C38.3607 366.622 38.1492 366.739 37.9378 366.879L37.6794 367.019L36.7633 367.487C36.4451 367.631 36.115 367.749 35.7767 367.837L35.3538 367.977C35.0892 368.075 34.8128 368.138 34.5316 368.164L33.8974 368.281C33.5298 368.305 33.1609 368.305 32.7933 368.281C31.6535 368.32 30.514 368.194 29.4106 367.907C29.0912 367.835 28.7773 367.742 28.471 367.627L27.5783 367.3L26.6622 366.903L25.8165 366.459L24.9708 365.945C23.9523 365.246 22.9938 364.465 22.1049 363.609C21.8231 363.352 21.5177 363.072 21.2593 362.792L20.6015 362.114C19.7324 361.18 18.9337 360.199 18.2524 359.195L16.843 357.302L14.4939 354.196C13.8596 353.308 13.1784 352.421 12.4737 351.556C11.7689 350.692 11.0877 349.945 10.336 349.221C10.0094 348.853 9.66441 348.502 9.3024 348.169C8.7856 347.632 8.22182 347.118 7.65804 346.628C7.09426 346.137 5.99018 345.18 5.12102 344.502C4.25185 343.825 3.00684 342.961 1.90276 342.166L0 341.022C7.42313 341.349 15.0342 341.512 22.7157 341.396C27.5783 341.396 32.4644 341.139 37.3506 340.788C40.146 340.601 42.9649 340.345 45.7603 340.017C48.0937 339.753 50.4428 339.449 52.8076 339.107C59.9168 338.081 66.9373 336.519 73.8084 334.435C88.1194 330.347 101.282 323.015 112.263 313.016C118.212 307.453 123.351 301.093 127.532 294.119C139.794 271.952 130.022 246.118 116.656 221.055C115.387 218.719 114.072 216.383 112.756 214.047C110.595 210.193 108.364 206.339 106.179 202.555C103.994 198.771 102.232 195.711 100.33 192.347C91.2387 176.3 83.886 161.445 83.6746 149.135C83.6746 148.411 83.6746 147.71 83.6746 147.009C83.6794 143.091 84.049 139.181 84.7787 135.33C90.1581 105.525 115.434 77.8926 130.445 46.7795C137.327 33.494 141.155 18.8538 141.65 3.91738L142.613 3.35678C144.115 2.45693 145.686 1.67592 147.312 1.02097C147.711 0.857463 148.11 0.740673 148.51 0.600524C149.763 0.206594 151.071 0.00957271 152.386 0.0165706H152.667H153.208H153.513C153.63 -0.00552354 153.749 -0.00552354 153.865 0.0165706C154.074 0.0490472 154.279 0.103867 154.476 0.180078C154.742 0.252728 155.001 0.346461 155.251 0.460375C155.59 0.60741 155.912 0.787367 156.215 0.997612C155.839 2.81955 155.486 4.64148 155.134 6.46341C154.782 8.28535 154.547 9.61676 154.265 11.135C153.983 12.6533 153.795 13.7745 153.584 15.1059C153.372 16.4373 153.067 18.0724 152.832 19.5673L151.986 24.8463C151.516 27.8828 151.047 30.896 150.624 33.9326C149.942 38.6042 149.285 43.0656 148.65 47.6204C148.392 49.3723 148.157 51.1242 147.899 52.8527C147.405 56.333 146.912 59.8601 146.395 63.2937C146.02 65.9332 145.62 68.526 145.221 71.1421L144.446 75.9772C144.093 78.313 143.717 80.4152 143.342 82.6343C142.966 84.8533 142.59 87.049 142.167 89.2446C141.674 91.814 141.18 94.3834 140.664 96.9294C140.382 98.3076 140.076 99.6857 139.794 101.064C139.043 104.568 138.244 108.071 137.445 111.528C136.952 113.514 136.435 115.476 135.871 117.438C135.496 118.793 135.12 120.124 134.72 121.479C134.321 122.834 133.945 124.095 133.546 125.403C133.502 125.578 133.447 125.749 133.381 125.917C133.006 127.108 132.63 128.253 132.23 129.467C131.62 131.336 130.985 133.181 130.304 135.003C129.952 136.054 129.552 137.082 129.153 138.086C129.112 138.239 129.057 138.388 128.989 138.53L128.519 139.722C127.814 141.497 127.086 143.272 126.334 145.047C125.324 147.383 124.267 149.719 123.116 152.055C122.552 153.223 121.988 154.39 121.401 155.512C120.814 156.633 120.226 157.847 119.592 158.945C118.958 160.043 118.371 161.281 117.736 162.332C118.324 162.893 118.911 163.477 119.475 164.061C121.824 166.397 124.079 168.802 126.24 171.278C126.851 171.956 127.438 172.656 128.002 173.357C128.566 174.058 129.13 174.735 129.693 175.459C130.821 176.861 131.901 178.309 132.912 179.757L133.734 180.949C134.368 181.883 135.002 182.841 135.566 183.798C136.13 184.756 136.412 185.153 136.811 185.83C137.21 186.508 137.727 187.442 138.15 188.166C138.573 188.89 139.09 189.965 139.536 190.899C139.982 191.834 140.429 192.744 140.828 193.679L141.039 194.169C141.415 195.057 141.768 195.945 142.097 196.856C142.425 197.766 142.872 199.004 143.248 200.079C143.623 201.153 143.764 201.667 143.999 202.415C144.728 204.751 145.362 207.25 145.926 209.702C147.358 216.079 148.275 222.596 149.285 229.09C149.285 229.463 149.285 229.861 149.449 230.234C149.623 231.398 149.858 232.552 150.154 233.691C150.546 235.183 151.207 236.591 152.104 237.849L152.315 238.129C152.524 238.402 152.751 238.66 152.996 238.9L153.865 239.694C154.012 239.831 154.169 239.956 154.335 240.068C154.523 240.232 154.711 240.348 154.899 240.488L155.486 240.862C155.926 241.17 156.389 241.444 156.872 241.68C157.298 241.936 157.737 242.17 158.188 242.381C159.198 242.894 160.232 243.362 161.218 243.875C163.587 245.096 165.85 246.51 167.984 248.103C168.688 248.64 169.393 249.201 170.074 249.785C170.755 250.369 171.719 251.233 172.423 251.981C173.128 252.728 174.514 254.13 175.477 255.251L176.863 257.003C177.793 258.178 178.649 259.411 179.424 260.693L180.293 262.118C181.156 263.578 181.94 265.083 182.642 266.626C182.691 266.731 182.731 266.841 182.759 266.953C182.856 267.168 182.919 267.397 182.947 267.631C183.041 268.16 183.009 268.704 182.853 269.219Z" transform="translate(161 -176)" fill="white"/>
<g style="mix-blend-mode:multiply" opacity="0.33">
<path d="M168.805 354.559C167.983 355.659 167.184 356.899 166.456 357.905C165.728 358.911 165.282 359.543 164.648 360.245C163.232 362.128 161.6 363.839 159.786 365.346C159.248 365.792 158.683 366.207 158.095 366.586C157.649 366.866 157.203 367.147 156.733 367.381C156.33 367.6 155.914 367.795 155.488 367.966L154.596 368.294C154.29 368.409 153.976 368.503 153.656 368.574C152.562 368.864 151.43 368.99 150.298 368.949C142.594 368.621 138.931 361.134 136.206 354.583C136.105 355.263 135.956 355.935 135.76 356.595C135.672 356.944 135.562 357.288 135.431 357.624V357.858C135.268 358.305 135.08 358.743 134.868 359.169C134.672 359.594 134.452 360.008 134.21 360.409L134.069 360.666C133.875 361.004 133.663 361.332 133.435 361.649C133.224 361.976 132.989 362.28 132.754 362.585C132.563 362.844 132.36 363.094 132.143 363.333C131.7 363.872 131.213 364.373 130.687 364.831L130.452 365.065C130.38 365.149 130.301 365.227 130.217 365.299L130.006 365.486L128.714 366.492C128.351 366.76 127.975 367.01 127.587 367.241C126.663 367.82 125.689 368.313 124.675 368.715C124.393 368.844 124.103 368.954 123.806 369.042C123.464 369.183 123.11 369.293 122.749 369.37C122.426 369.477 122.097 369.563 121.763 369.627L120.87 369.791C120.461 369.881 120.044 369.936 119.625 369.955C118.992 369.99 118.357 369.99 117.723 369.955C108.545 369.386 101.105 362.33 100.085 353.226C99.0349 353.83 98.0577 354.552 97.1728 355.378C96.966 355.545 96.7699 355.725 96.5857 355.916L95.9281 356.548L95.2939 357.227C94.8712 357.671 94.4719 358.139 94.0727 358.607C90.6203 362.655 87.6141 367.358 83.7154 369.487C83.5267 369.594 83.3305 369.688 83.1283 369.768C82.9018 369.887 82.6662 369.989 82.4237 370.072L81.6956 370.306L81.085 370.47H80.169H79.3705C78.9406 370.504 78.5087 370.504 78.0788 370.47C71.8785 369.627 68.6845 362.421 68.4966 356.197C68.4966 355.285 68.4966 354.349 68.4966 353.436C68.4966 351.471 68.6845 349.482 68.7549 347.54C68.7549 346.721 68.7549 345.902 68.7549 345.2C68.7718 343.555 68.6461 341.911 68.3791 340.287C68.3791 339.725 68.1443 339.187 68.0034 338.626L67.7215 337.713C62.4596 342.107 56.4227 345.487 49.9193 347.68C46.2085 348.921 41.7227 349.693 39.2802 344.92C38.4867 343.285 38.1694 341.461 38.3642 339.655C38.646 336.45 38.9514 333.244 39.2332 330.039L41.2765 307.624C35.405 307.624 30.332 311.438 24.8364 313.403C20.7936 314.965 16.2545 314.585 12.5298 312.374C12.2567 312.182 11.9977 311.971 11.7547 311.742C11.6752 311.689 11.6105 311.616 11.5668 311.531C11.2931 311.279 11.0489 310.996 10.8388 310.689C10.4312 310.086 10.122 309.423 9.92283 308.724C9.45407 306.306 9.72404 303.804 10.6979 301.541C14.3578 290.533 20.3761 280.45 28.3357 271.99L6.21206 272.434H4.68548C4.10643 272.41 3.53169 272.323 2.97102 272.177L2.5013 272.037C2.2175 271.944 1.94244 271.826 1.67929 271.686L1.30352 271.452C0.951342 271.213 0.654937 270.902 0.434542 270.539C0.434542 270.352 0.246655 270.165 0.152712 269.931C0.078794 269.703 0.0315096 269.467 0.0117965 269.229C-0.0417286 268.507 0.0874734 267.783 0.38757 267.123C4.69117 257.296 12.2642 249.247 21.8302 244.334C25.1182 242.673 28.7585 241.269 30.9427 238.297C32.5922 235.648 33.5602 232.635 33.761 229.523C34.6534 223.463 35.5694 217.38 36.8376 211.414C38.058 205.451 39.8593 199.621 42.2159 194.006C42.6856 192.93 43.1788 191.854 43.719 190.801C43.719 190.59 43.9069 190.38 44.0243 190.169C44.4001 189.397 44.7993 188.625 45.2221 187.829L45.9267 186.589C47.3538 184.085 48.922 181.663 50.6238 179.336C51.1405 178.587 51.6807 177.838 52.2444 176.996C54.1702 174.422 56.237 171.966 58.3977 169.556L57.2703 168.269C26.2925 119.134 26.7387 57.7394 15.2776 1.00066C15.58 0.790065 15.9025 0.609806 16.2405 0.462523C16.4909 0.348418 16.7501 0.254526 17.0156 0.181754C17.2126 0.105416 17.4173 0.050503 17.6262 0.0179718C17.7424 -0.00599059 17.8623 -0.00599059 17.9785 0.0179718H18.2838H18.824H19.8339L21.196 0.158356C21.799 0.262748 22.3951 0.40339 22.981 0.57951L24.1787 1.00066C25.8036 1.65672 27.3742 2.43904 28.8759 3.34041C32.8529 5.60216 36.8141 7.89511 40.7598 10.2193C40.603 19.9933 41.4768 29.7568 43.3667 39.3491C50.2246 74.0943 68.2382 106.687 82.682 138.858C84.2478 142.462 85.8135 146.049 87.3792 149.621C89.2581 154.137 91.043 158.653 92.687 163.145C88.1966 172.374 82.9986 181.245 77.1394 189.678C74.6615 193.201 73.0523 197.257 72.4422 201.517C72.2108 204.676 72.7423 207.845 73.9923 210.759C73.9923 212.396 85.3829 218.082 85.7352 230.53C85.7352 235.677 84.0442 242.018 78.6894 249.715C113.308 257.998 131.039 269.463 140.175 281.84C144.453 287.677 147.344 294.405 148.63 301.517C148.63 301.728 148.63 301.938 148.748 302.172C149.588 307.152 150.02 312.191 150.039 317.24C150.439 331.864 149.57 344.732 162.158 351.752C164.267 352.921 166.495 353.863 168.805 354.559Z" transform="translate(-104.984 -175.807)" fill="#0C0C0C"/>
</g>
<path d="M31 20.4982L29.1654 21.9046C25.9196 24.4127 22.8384 26.9677 19.7572 29.4289C18.346 30.5774 16.9818 31.7729 15.6647 32.7808C15.1707 33.1793 14.7003 33.5543 14.1829 33.9059C12.9188 34.8436 11.5993 35.7046 10.2315 36.4843C9.92568 36.6718 9.5964 36.8359 9.26711 37C6.62284 33.5658 4.35953 29.8562 2.51675 25.9363C0.701086 22.3038 -0.156906 18.2705 0.0235794 14.2163C1.27016 -0.996292 16.6525 -4.18414 24.4848 5.54348C25.7953 7.18225 26.8209 9.02833 27.519 11.005C28.4128 13.349 29.3065 15.9508 30.1768 18.4355C30.5296 19.1387 30.7648 19.8185 31 20.4982Z" transform="translate(56 160)" fill="#3E202D"/>
<path fill-rule="evenodd" clip-rule="evenodd" d="M35.416 17.2516C35.8447 18.4806 36.271 19.6976 36.6973 20.8685L37.2109 22.0316L34.2461 24.239L32.4253 25.6632C32.0508 25.9501 31.6792 26.2375 31.311 26.5255C30.0605 22.9689 28.8062 19.4137 27.5464 15.8602C25.2119 9.04797 19.7959 6.55566 15.5938 7.14905C11.8354 7.67126 7.60986 10.8281 7.0498 18.1864C6.54492 24.6018 10.5762 32.0922 15.7627 39.0943C15.0669 39.5615 14.3569 40.0059 13.6328 40.427C13.3291 40.6169 13.0024 40.7831 12.6753 40.9492C11.6377 41.5362 10.5703 42.067 9.47705 42.5395C7.19189 39.4532 5.18408 36.1645 3.47754 32.7128C1.01123 28.097 -0.182617 22.8893 0.0224609 17.6404C0.769531 8.09851 6.51221 1.21509 14.6133 0.123169C21.0918 -0.654297 27.4595 2.29028 31.1411 7.76624C32.3877 9.51025 33.3784 11.4292 34.0825 13.4629C34.5322 14.7137 34.9756 15.989 35.416 17.2516ZM15.7627 39.0943C16.3716 38.6854 16.9692 38.2592 17.5547 37.816C18.0679 37.46 18.5352 37.0802 19.0254 36.6767C19.8398 36.0113 20.6719 35.3091 21.5225 34.593C22.0376 34.1595 22.5591 33.721 23.0874 33.2825L23.5986 32.8527C26.0674 30.7762 28.6064 28.6401 31.311 26.5255C32.8726 30.967 34.4268 35.411 35.9736 39.8574V40.1897C38.3081 46.8832 41.2026 55.1909 39.4756 62.5491L39.3584 63.0001H39.2417C36.7207 62.8101 34.3164 60.4365 32.2383 58.0629L32.2852 58.0392L29.4136 54.9298L29.2461 54.7507C25.2676 50.4886 20.1094 44.963 15.7627 39.0943Z" transform="translate(52 154)" fill="#3E202D"/>
<path d="M3.5363 36.4628L0 0L14.4942 33.2684L46.3209 100.775L58 122L39.5507 103.875L3.5363 36.4628Z" transform="translate(184 16)" fill="#6B6B6B"/>
<path d="M6.50146 0.78592C4.99578 -0.119293 3.15023 -0.250302 1.53252 0.433191C0.335613 1.46643 -0.218755 3.06323 0.0793395 4.61891C0.876245 13.0844 11.0016 19.0102 10.2282 27.4757C9.82971 32.0142 6.31395 35.659 5.04828 40.0329C3.24352 46.3585 6.4077 52.9427 9.45469 58.8451L20.3301 79.4915C22.9786 84.5002 26.0491 89.9322 31.3696 91.884C37.9558 94.2355 46.1592 90.5907 51.8782 94.6353C54.0111 96.1403 55.4174 98.5153 57.4331 100.161C62.1207 104.065 69.1523 103.218 75.1291 101.878C90.1765 98.5388 105.224 93.2714 116.849 83.0658C126.225 74.8119 135.413 60.4206 133.819 47.205C132.295 34.5303 112.185 34.836 101.849 32.1082C69.4738 23.5791 37.6348 13.1198 6.50146 0.78592Z" transform="translate(-33 25)" fill="#6B6B6B"/>
<path d="M127.5 0.74488C129.017 -0.137118 130.861 -0.241874 132.468 0.462779C133.664 1.49572 134.219 3.09205 133.921 4.64729C133.124 13.1103 123 19.0345 123.774 27.4975C124.172 32.0347 127.687 35.6785 128.953 40.051C130.757 46.3748 127.593 52.9572 124.524 58.8578L113.65 79.4983C111.002 84.5056 107.932 89.936 102.612 91.8872C96.0274 94.2381 87.8254 90.5942 82.1075 94.6377C79.9749 96.1422 78.5689 98.5166 76.5535 100.162C71.8667 104.065 64.8364 103.218 58.8607 101.878C43.8158 98.5401 28.771 93.2742 17.1476 83.0715C7.77391 74.8201 -1.41233 60.4329 0.181203 47.2211C1.70443 34.5501 21.811 34.8557 32.1456 32.1287C64.5244 23.5799 96.3657 13.1 127.5 0.74488Z" transform="translate(143 25)" fill="#6B6B6B"/>
<path d="M79.992 0.363243C81.3101 -0.171752 82.8046 -0.113413 84.0741 0.522592C84.8341 1.21003 85.3374 2.12279 85.5051 3.11772C90.1971 20.4868 83.7456 41.3161 67.5348 49.9665C61.2618 53.0078 54.4435 54.8473 47.453 55.3844C40.8263 56.3542 34.0749 56.177 27.512 54.8608C15.782 52.1064 -12.6516 29.1828 6.39795 19.6218C16.4154 14.5681 29.858 13.1795 40.8607 10.4023L79.992 0.363243Z" transform="translate(167 55)" fill="white"/>
<path d="M188.434 92.1694C187.63 94.597 186.582 96.9371 185.306 99.154C181.037 107.165 172.375 111.85 163.314 111.051C158.869 110.689 154.514 109.595 150.427 107.815C149.633 107.489 148.863 107.14 148.093 106.744C140.762 102.996 135.182 96.6861 129.276 90.7958C125.264 86.4828 120.601 82.8221 115.455 79.9464C97.2222 70.6336 80.7402 79.9464 66.4292 90.9355C61.7601 94.5209 57.3711 98.2926 53.2155 101.668C51.2392 103.26 49.1392 104.692 46.9355 105.952C39.9419 110.124 31.8989 112.216 23.7532 111.982C18.2303 111.779 12.9425 109.701 8.76529 106.092C7.14338 104.652 5.74317 102.981 4.60975 101.133C3.32621 99.0728 2.32881 96.8485 1.64485 94.5209C-0.00744283 88.5118 -0.420427 82.231 0.430871 76.0583C1.38478 68.0251 3.5328 60.1784 6.80425 52.7763C10.1826 45.0936 14.674 37.9474 20.1347 31.5663L20.8584 30.7282C25.3633 25.5573 30.4825 20.9524 36.1031 17.0151C43.6008 11.8456 51.8425 7.84194 60.5461 5.14128C62.6005 4.4661 64.7016 3.88405 66.8261 3.34856L68.5303 2.92949C87.007 -1.22809 106.209 -0.956802 124.56 3.72107C126.895 4.27984 129.066 4.93174 131.284 5.65348L131.797 5.81645C146.467 10.3241 159.821 18.3131 170.715 29.0985C177.755 36.1695 183.248 44.6205 186.846 53.9171C187.477 55.5235 188.037 57.1533 188.551 58.8063C189.57 62.1866 190.266 65.6556 190.628 69.1668C191.532 76.9029 190.784 84.742 188.434 92.1694Z" transform="translate(24 95)" fill="#6B6B6B"/>
<path fill-rule="evenodd" clip-rule="evenodd" d="M646.544 406.889C645.512 403.288 648.446 399.166 651.832 394.409C658.58 384.929 667.121 372.93 649.634 357.521C632.458 342.386 625.875 354.696 620.351 365.027C617.429 370.492 614.802 375.403 611.061 375.403C607.597 375.403 581.289 364.183 545.22 348.241L544.635 341.93C546.571 342.302 548.538 342.49 550.51 342.491C561.745 342.491 570.756 336.296 573.471 326.689C574.738 321.577 574.403 316.2 572.512 311.285C571.268 307.549 569.791 303.896 568.088 300.345C576.347 299.511 582.896 293.02 583.793 284.778C584.091 281.68 583.592 278.558 582.342 275.708C576.782 262.889 566.937 252.395 554.489 246.022L552.64 245.11C552.459 245.02 552.261 244.923 552.055 244.822C551.514 244.556 550.921 244.266 550.463 244.012C550.436 243.869 550.408 243.716 550.38 243.557C550.35 243.381 550.32 243.197 550.292 243.013C550.244 242.712 550.199 242.412 550.159 242.142L550.089 241.674L549.958 240.8C548.941 234.025 547.835 226.653 546.063 219.281C584.565 204.602 612.442 194.924 617.357 195.602C620.888 196.084 624.236 196.903 627.453 197.69C639.827 200.716 650.264 203.268 661.688 184.382C676.083 160.586 647.645 147.917 647.645 147.917C647.645 147.917 674.093 112.761 638.071 105.188C602.05 97.6141 593.834 165.565 593.834 165.565L533.307 188.987C529.91 183.822 526.114 178.929 521.955 174.354C538.854 140.087 544.237 101.892 549.457 64.8424C551.633 49.3214 553.904 33.2395 556.993 18.0925C558.118 12.5264 555.771 6.8324 551.048 3.67017C547.526 1.28174 543.368 0.0032959 539.111 0.000244141C533.299 0.26355 527.654 2.02734 522.727 5.11938C488.508 24.7777 454.709 46.1659 422.292 68.7227C414.17 74.3561 405.908 80.1764 398.067 85.9734C396.944 86.7682 395.329 87.7968 393.62 88.8719C393.085 89.2084 392.54 89.5631 391.986 89.9269C391.683 90.1259 391.377 90.3276 391.07 90.5305C390.543 90.8783 390.012 91.2294 389.478 91.5763C389.073 91.8394 388.667 92.1 388.26 92.3549C386.083 91.7704 383.907 91.2328 381.753 90.7185C381.994 88.3607 381.771 85.9788 381.098 83.7061C379.427 78.0861 374.874 73.7881 369.161 72.4393H368.716C367.69 70.2545 366.233 68.2988 364.433 66.6891C361.328 63.9401 357.324 62.4187 353.175 62.4115C348.511 62.505 344.028 64.2345 340.512 67.2969C340.271 67.4738 340.038 67.6576 339.811 67.8409C339.619 67.9966 339.431 68.1517 339.249 68.302C332.689 65.3997 325.037 66.5973 319.681 71.364C315.101 69.3864 309.967 69.0964 305.193 70.5459C302.456 71.3513 299.957 72.8116 297.914 74.8002C292.643 80.0385 291.356 88.0743 294.73 94.6923L294.309 94.8325C291.36 92.4951 288.294 90.6251 285.602 88.9187C285.119 88.6146 284.643 88.3143 284.184 88.022C283.788 87.7695 283.404 87.5231 283.038 87.2853C282.328 86.8245 281.687 86.3961 281.155 86.0201C273.173 80.1998 265.028 74.3328 256.953 68.7694C224.536 46.1659 190.738 24.7777 156.495 5.11938C151.566 2.0332 145.922 0.269897 140.111 0.000244141C135.872 -0.0196533 131.723 1.22571 128.197 3.57666C123.484 6.74512 121.146 12.4379 122.276 17.999C125.342 33.2395 127.612 49.3214 129.789 64.8892C135.43 104.977 141.258 146.351 161.668 182.676C160.217 184.593 158.859 186.509 157.619 188.426C107.741 169.352 66.3354 153.364 66.3354 153.364C66.3354 153.364 60.2734 91.49 24.7432 100.746C-10.7866 110.003 17.0195 143.943 17.0195 143.943C17.0195 143.943 -10.7866 157.828 4.68457 180.969C16.9385 199.298 27.2246 196.335 39.416 192.823C42.6172 191.901 45.9497 190.942 49.4834 190.319C57.0903 188.94 97.3252 202.965 144.16 220.707C142.55 227.633 141.538 234.473 140.593 240.861L140.462 241.744C140.462 242.233 140.308 242.946 140.173 243.568L140.114 243.841L140.064 244.082C139.786 244.236 139.458 244.404 139.123 244.571C138.695 244.785 138.255 244.997 137.888 245.181L136.039 246.092C123.596 252.473 113.753 262.964 108.186 275.778C106.946 278.632 106.447 281.751 106.734 284.848C107.632 293.09 114.18 299.581 122.439 300.416C120.747 303.97 119.27 307.623 118.016 311.355C116.153 316.277 115.819 321.645 117.056 326.759C119.771 336.366 128.759 342.561 140.041 342.561C142.005 342.561 143.964 342.373 145.892 342L144.933 352.495C138.507 356.086 132.261 359.601 126.3 362.956C98.5786 378.555 77.0151 390.689 72.2573 390.9C68.3521 391.078 65.9644 384.627 63.3169 377.473C58.6494 364.861 53.1738 350.065 37.1484 365.562C20.4185 381.74 29.478 393.344 36.6172 402.488C40.1948 407.071 43.29 411.036 42.415 414.649C41.5225 418.333 38.6831 422.488 35.5405 427.087C29.4512 435.998 22.2227 446.576 25.8198 458.618C31.2734 476.873 54.9136 478.58 69.3081 470.071C80.4873 463.471 79.1064 446.83 78.1157 434.886C77.6045 428.726 77.1968 423.815 78.6704 422.176C81.3389 419.254 124.967 397.749 170.445 376.244C171.962 375.957 173.457 375.558 174.916 375.052H175.196C177.069 387.651 185.401 397.095 196.473 398.614C197.534 398.773 198.606 398.851 199.679 398.848C206.667 398.701 213.269 395.621 217.865 390.363C223.326 395.077 230.221 397.811 237.433 398.123H238.416C243.041 398.108 247.605 397.07 251.781 395.084L252.974 396.206C257.645 400.227 263.387 402.802 269.499 403.616L275.584 403.943C283.166 403.03 290.572 401.006 297.562 397.936C299.482 400.063 301.377 402.073 303.133 403.897L305.965 406.889C308.095 409.226 312.074 413.434 317.481 413.901H318.417C319.968 413.945 321.487 413.458 322.724 412.522C324.054 411.387 324.948 409.825 325.251 408.104C327.533 398.99 324.344 390.009 321.732 382.655L321.53 382.088V381.784L321.039 380.381C337.938 367.572 349.734 364.814 361.554 370.868C365.922 373.352 369.871 376.508 373.257 380.218L372.648 381.901L372.532 382.205C369.887 389.661 366.61 398.965 368.833 408.221C369.137 409.942 370.031 411.504 371.361 412.639C372.596 413.578 374.116 414.065 375.668 414.018H376.604C379.163 413.716 381.591 412.721 383.626 411.143C385.268 409.885 386.788 408.477 388.167 406.935L390.999 403.943C391.394 403.525 391.798 403.098 392.21 402.664C393.407 401.402 394.666 400.076 395.938 398.684C396.081 398.76 396.224 398.829 396.367 398.895C396.622 399.012 396.876 399.117 397.131 399.222C401.14 400.939 405.358 402.118 409.677 402.728L412.368 403.008C421.338 403.794 430.169 400.395 436.289 393.799C441.125 396.629 446.623 398.137 452.229 398.17H453.212C460.424 397.862 467.32 395.127 472.779 390.409C477.389 395.656 484 398.72 490.989 398.848C492.054 398.851 493.119 398.773 494.172 398.614C505.243 397.095 513.599 387.651 515.471 375.052C516.478 375.403 517.484 375.73 518.491 376.01C520.46 376.591 522.5 376.897 524.553 376.922C572.418 397.959 608.955 414.322 610.687 416.098C612.291 417.7 612.114 422.687 611.893 428.922C611.468 440.883 610.881 457.442 622.39 463.526C637.135 471.38 660.682 468.669 665.316 450.156C668.36 437.995 660.638 427.801 654.105 419.176C650.693 414.671 647.604 410.594 646.544 406.889ZM431.21 374.327C431.174 374.494 431.127 374.658 431.07 374.818V375.216C430.454 377.037 429.67 378.798 428.729 380.475C426.194 385.477 421.159 388.728 415.552 388.983H412.93C410.37 388.761 407.847 388.227 405.417 387.394C405.009 387.256 404.598 387.109 404.184 386.955C403.617 386.743 403.045 386.515 402.468 386.272L402.127 386.124C401.654 385.92 401.175 385.713 400.666 385.43C400.496 385.337 400.33 385.246 400.167 385.157C399.718 384.912 399.286 384.676 398.84 384.402C396.318 382.779 393.965 380.907 391.818 378.815C390 377.116 388.181 375.278 386.339 373.416L386.332 373.408L386.317 373.392C385.776 372.817 385.222 372.254 384.615 371.666C384.409 371.466 384.197 371.262 383.977 371.055L383.579 370.634L381.238 368.297C380.326 367.408 379.39 366.543 378.43 365.725C375.271 362.859 371.764 360.4 367.991 358.409C349.617 349.059 332.882 355.44 319.283 364.416L316.146 366.567L313.174 368.741L311.349 370.143C309.223 371.79 307.167 373.456 305.136 375.103C304.592 375.544 304.05 375.984 303.508 376.422C303 376.832 302.493 377.241 301.986 377.647C301.47 378.067 300.96 378.495 300.457 378.917C299.59 379.643 298.743 380.353 297.914 380.989C297.664 381.191 297.421 381.386 297.175 381.576C296.935 381.76 296.693 381.938 296.439 382.111C295.181 383.046 293.868 383.905 292.507 384.682C292.301 384.809 292.085 384.924 291.866 385.037L291.695 385.123L291.547 385.197C285.933 388.299 279.614 389.909 273.197 389.872H272.659C268.852 389.684 265.217 388.228 262.336 385.734C261.233 384.741 260.272 383.6 259.481 382.345L258.99 381.55C258.261 380.231 257.68 378.836 257.257 377.389L256.93 376.314C256.486 374.535 256.197 372.72 256.064 370.891C255.784 367.777 255.847 364.642 256.251 361.541C257.11 354.158 259.083 346.947 262.103 340.153C265.223 333.03 269.379 326.405 274.438 320.495L274.859 320.004L275.069 319.77C279.222 315.011 283.938 310.772 289.113 307.148C296.065 302.342 303.714 298.629 311.793 296.138C313.408 295.6 315.14 295.109 317.247 294.572L319.236 294.081C336.669 290.189 354.775 290.454 372.087 294.852C374.1 295.367 376.206 295.951 378.336 296.652L378.875 296.816C392.496 301.023 404.9 308.448 415.037 318.461C421.423 324.893 426.411 332.572 429.688 341.018C429.873 341.491 430.052 341.972 430.228 342.464C430.564 343.405 430.887 344.384 431.21 345.412C432.105 348.403 432.717 351.471 433.036 354.575C433.824 361.208 433.234 367.932 431.304 374.327H431.21ZM531.177 356.89C531.246 356.582 531.293 356.269 531.317 355.955C531.575 354.52 531.685 353.063 531.645 351.607V350.158C531.504 348.638 531.37 347.119 531.235 345.599C531.101 344.08 530.966 342.561 530.826 341.041C530.24 334.403 529.632 327.741 529.023 321.103C532.928 321.134 536.486 322.834 540.064 324.543C541.826 325.384 543.592 326.228 545.407 326.876C547.146 327.477 548.974 327.785 550.814 327.788C551.182 327.788 551.538 327.824 551.907 327.818C552.055 327.816 552.205 327.808 552.359 327.788C552.572 327.76 552.781 327.714 552.988 327.669C553.304 327.599 553.616 327.531 553.927 327.531C554.218 327.461 554.506 327.383 554.792 327.295C554.98 327.237 555.168 327.176 555.355 327.11L556.221 326.759C556.521 326.627 556.811 326.47 557.087 326.292C557.306 326.165 557.518 326.025 557.719 325.871C557.956 325.689 558.183 325.494 558.397 325.287C559.293 324.481 559.936 323.434 560.247 322.271C560.426 321.616 560.513 320.94 560.504 320.261C560.527 319.887 560.527 319.513 560.504 319.139C560.527 318.984 560.527 318.827 560.504 318.672C560.474 318.324 560.411 317.979 560.317 317.643C560.125 316.78 559.882 315.93 559.591 315.095C559.516 314.869 559.434 314.643 559.353 314.414C559.282 314.216 559.211 314.015 559.146 313.81C559.086 313.619 559.022 313.428 558.955 313.239C558.866 312.988 558.772 312.741 558.679 312.5C558.553 312.178 558.421 311.853 558.288 311.526C558.074 311 557.86 310.472 557.672 309.953C557.368 309.111 557.017 308.293 556.712 307.615C556.408 306.937 556.174 306.423 555.776 305.582C555.378 304.74 554.934 303.828 554.512 303.057C554.328 302.72 554.135 302.383 553.941 302.044C553.691 301.607 553.439 301.167 553.202 300.719C552.78 299.925 552.312 299.153 551.821 298.382L551.119 297.237C550.884 296.839 550.627 296.465 550.37 296.091C549.386 294.572 548.333 293.123 547.256 291.697C546.18 290.271 545.033 288.868 543.839 287.513C543.277 286.835 542.669 286.157 542.037 285.502L564.062 285.947H565.139H565.864H566.59C566.828 285.922 567.063 285.875 567.292 285.806L568.181 285.502L568.673 285.269L568.954 285.082C569.11 284.975 569.251 284.85 569.375 284.708L569.539 284.497C569.654 284.364 569.749 284.214 569.82 284.053C569.864 283.966 569.905 283.876 569.942 283.785C569.975 283.704 570.004 283.622 570.03 283.539C570.055 283.337 570.055 283.133 570.03 282.931C570.089 282.567 570.089 282.196 570.03 281.833C570.002 281.598 569.939 281.37 569.843 281.155C569.815 281.042 569.775 280.932 569.726 280.827C569.026 279.283 568.245 277.777 567.386 276.316L566.52 274.89C565.748 273.607 564.896 272.373 563.968 271.197L562.587 269.444C561.875 268.61 560.928 267.621 560.201 266.861C559.95 266.599 559.725 266.363 559.544 266.171C558.842 265.423 557.883 264.558 557.204 263.974C556.525 263.39 555.823 262.829 555.121 262.291C552.995 260.696 550.741 259.281 548.38 258.06C547.397 257.546 546.367 257.078 545.361 256.564C544.912 256.354 544.474 256.12 544.05 255.863C543.569 255.627 543.107 255.353 542.669 255.045L542.084 254.671C541.896 254.531 541.709 254.414 541.522 254.25C541.438 254.193 541.356 254.134 541.278 254.07C541.201 254.009 541.126 253.944 541.054 253.876L540.188 253.081C539.944 252.84 539.717 252.583 539.509 252.31L539.298 252.029C538.405 250.771 537.747 249.361 537.356 247.869C537.061 246.729 536.827 245.574 536.654 244.409C536.49 244.035 536.49 243.638 536.49 243.264C536.336 242.27 536.184 241.275 536.032 240.28C535.192 234.773 534.352 229.268 533.143 223.863C532.581 221.408 531.949 218.907 531.224 216.57C531.161 216.371 531.105 216.188 531.05 216.007C530.898 215.508 530.75 215.021 530.475 214.232C530.1 213.157 529.655 211.918 529.328 211.006C529 210.095 528.649 209.206 528.274 208.318L528.063 207.827C527.728 207.039 527.359 206.267 526.985 205.484L526.776 205.046C526.332 204.111 525.817 203.035 525.396 202.311C525.197 201.969 524.977 201.58 524.758 201.193C524.514 200.761 524.271 200.331 524.061 199.973C523.816 199.555 523.615 199.244 523.366 198.843C523.21 198.593 523.036 198.307 522.821 197.94C522.259 196.981 521.627 196.023 520.995 195.088L520.176 193.896C519.169 192.447 518.093 190.997 516.969 189.595C516.408 188.87 515.846 188.192 515.284 187.491C514.722 186.79 514.137 186.089 513.529 185.411C511.375 182.933 509.128 180.525 506.788 178.188C506.226 177.603 505.641 177.019 505.056 176.458C505.688 175.406 506.25 174.167 506.905 173.069C507.298 172.409 507.649 171.708 507.999 171.01C508.232 170.545 508.464 170.081 508.707 169.633C509.315 168.51 509.901 167.342 510.416 166.173C511.562 163.836 512.616 161.498 513.622 159.161C514.402 157.415 515.128 155.639 515.799 153.831L516.267 152.639C516.314 152.541 516.355 152.44 516.389 152.337C516.404 152.29 516.418 152.243 516.431 152.195C516.829 151.19 517.227 150.161 517.578 149.109C518.256 147.286 518.889 145.439 519.497 143.569C519.895 142.354 520.27 141.209 520.644 140.016C520.663 139.969 520.68 139.921 520.697 139.873C520.74 139.751 520.776 139.628 520.808 139.502C521.229 138.193 521.557 136.908 521.978 135.575C522.399 134.243 522.774 132.887 523.125 131.531C523.687 129.568 524.202 127.604 524.693 125.617C525.489 122.158 526.285 118.652 527.034 115.146C527.314 113.766 527.619 112.387 527.9 111.008C528.438 108.46 528.93 105.889 529.398 103.318C529.66 101.953 529.895 100.588 530.13 99.2172C530.273 98.3815 530.417 97.5437 530.568 96.7026C530.966 94.4819 531.34 92.3782 531.668 90.0408L532.44 85.2021L532.565 84.3818C532.921 82.0411 533.275 79.7134 533.611 77.3481C534.043 74.4623 534.459 71.5105 534.873 68.5757L535.109 66.8994C535.246 65.9766 535.377 65.047 535.508 64.1144C535.623 63.299 535.738 62.4812 535.858 61.6635C536.387 57.8444 536.933 54.0909 537.496 50.2245L537.824 47.9657L537.825 47.9595C538.27 44.9229 538.714 41.8862 539.182 38.8728L540.024 33.5901C540.258 32.0941 540.562 30.4579 540.773 29.1255C540.86 28.5764 540.943 28.0631 541.03 27.5431C541.154 26.801 541.287 26.045 541.452 25.1517C541.632 24.1787 541.792 23.2825 541.977 22.2849C542.081 21.7247 542.191 21.1326 542.318 20.4768C542.669 18.6534 543.02 16.8302 543.395 15.007C543.093 14.7966 542.772 14.6165 542.435 14.4694C542.266 14.3922 542.093 14.3242 541.917 14.2659C541.833 14.238 541.748 14.2123 541.663 14.1888C541.466 14.1125 541.262 14.0577 541.054 14.0253C540.938 14.0032 540.819 14.0032 540.703 14.0253H540.398H539.86H539.298C538.081 14.0468 536.874 14.2516 535.717 14.6331C535.585 14.6796 535.453 14.7235 535.32 14.7675C535.055 14.856 534.789 14.9445 534.523 15.0537C532.904 15.7092 531.339 16.4907 529.843 17.3912L528.883 17.9523C495.147 37.3535 462.324 58.1416 430.414 80.3168C422.347 85.9268 414.35 91.6146 406.423 97.3805C404.92 98.4758 403.105 99.6284 401.178 100.852C397.882 102.946 394.257 105.248 391.303 107.829C383.418 105.502 375.418 103.583 367.335 102.079L367.229 102.06C365.834 101.81 364.4 101.553 364.035 99.2738C363.796 97.4688 364.41 95.6552 365.697 94.3651C367.71 92.1678 369.301 87.0254 365.931 86.2073C365.69 86.1714 365.446 86.1714 365.206 86.2073C364.725 86.2191 364.25 86.314 363.801 86.4877C359.641 88.2108 355.779 90.5773 352.355 93.5002C354.368 89.5793 355.72 85.3542 356.358 80.9946C356.604 79.6857 356.173 78.3411 355.211 77.4182C354.682 76.9316 353.988 76.6642 353.269 76.6702C351.802 76.8373 350.429 77.4774 349.36 78.4934C344.626 82.2583 340.283 86.4869 336.393 91.116L336.388 91.0464C336.25 88.8953 336.109 86.7217 335.878 84.5709C335.749 82.3893 333.873 80.7252 331.688 80.8544C329.503 80.9834 327.837 82.8567 327.967 85.0385C328.086 88.0604 328.526 91.0614 329.277 93.9911C325.858 93.6219 323.015 91.1581 320.244 88.7567C317.4 86.2919 314.632 83.8931 311.396 83.8931C310.721 83.8944 310.05 83.9968 309.406 84.197C308.833 84.3397 308.309 84.6299 307.884 85.0385C306.34 86.5579 307.229 88.5447 308.095 90.1576C310.412 94.3884 312.94 98.5024 315.608 102.523C308.828 105.162 301.966 107.382 295.117 109.598C293.715 110.051 292.314 110.505 290.915 110.961C287.834 107.132 282.722 103.898 278.223 101.051C276.296 99.8323 274.481 98.6842 272.986 97.5908C265.06 91.825 257.07 86.1371 249.019 80.5271C220.526 60.674 191.331 41.974 161.434 24.4271C157.501 22.1052 153.554 19.8145 149.59 17.5549C148.094 16.6544 146.528 15.8728 144.909 15.2174L143.715 14.7966C143.134 14.6123 142.539 14.4717 141.937 14.3759C141.488 14.2957 141.035 14.2488 140.579 14.2356H140.111C139.932 14.2115 139.751 14.2115 139.573 14.2356H139.034H138.73C138.614 14.2117 138.495 14.2117 138.379 14.2356C138.249 14.2559 138.121 14.2849 137.995 14.3225C137.919 14.3451 137.844 14.3707 137.771 14.3993C137.506 14.4719 137.248 14.5658 136.998 14.6798C136.661 14.8269 136.34 15.007 136.039 15.2174C139.178 30.7952 141.42 46.7244 143.663 62.6541C149.582 104.689 155.5 146.728 177.888 182.325L178.848 183.728C176.694 186.135 174.635 188.59 172.715 191.161C172.444 191.568 172.178 191.952 171.918 192.326C171.639 192.725 171.367 193.112 171.101 193.498C169.404 195.824 167.841 198.243 166.419 200.745L165.717 201.984C165.296 202.778 164.898 203.55 164.523 204.321C164.492 204.378 164.455 204.435 164.417 204.492C164.318 204.646 164.219 204.799 164.219 204.952C163.681 206.004 163.189 207.079 162.721 208.155C160.373 213.764 158.577 219.588 157.361 225.546C156.097 231.506 155.185 237.584 154.295 243.638C154.095 246.746 153.13 249.757 151.486 252.403C149.654 254.902 146.795 256.291 143.981 257.657C143.452 257.915 142.924 258.171 142.405 258.434C132.872 263.343 125.324 271.383 121.035 281.201C120.736 281.86 120.607 282.584 120.661 283.305C120.68 283.543 120.728 283.779 120.801 284.006C120.838 284.099 120.89 284.184 120.939 284.265C121.014 284.388 121.082 284.501 121.082 284.614C121.302 284.977 121.597 285.288 121.948 285.526L122.322 285.76C122.585 285.9 122.859 286.017 123.142 286.11L123.61 286.25C124.168 286.396 124.741 286.483 125.318 286.508H126.84L148.888 286.063C140.956 294.516 134.958 304.589 131.311 315.586C130.34 317.847 130.071 320.347 130.538 322.762C130.736 323.461 131.044 324.123 131.451 324.726C131.66 325.032 131.904 325.315 132.176 325.567C132.22 325.652 132.284 325.724 132.364 325.777C132.606 326.006 132.864 326.217 133.136 326.409C136.848 328.618 141.372 328.997 145.401 327.437C147.199 326.792 148.952 325.949 150.702 325.106C154.283 323.382 157.854 321.663 161.785 321.663L159.749 344.057C159.577 346.017 159.396 347.978 159.217 349.939C159.104 351.18 158.991 352.422 158.882 353.664C158.688 355.468 159.004 357.29 159.795 358.923C162.229 363.692 166.7 362.92 170.398 361.682C176.879 359.49 182.896 356.114 188.14 351.724L188.421 352.635C188.561 353.173 188.678 353.734 188.795 354.295C189.062 355.917 189.187 357.56 189.17 359.204V361.541C189.143 362.28 189.1 363.025 189.056 363.774C188.984 364.991 188.912 366.216 188.912 367.432V370.19C189.1 376.408 192.283 383.607 198.462 384.449C198.89 384.483 199.321 384.483 199.749 384.449H200.545H201.458L202.066 384.285L202.792 384.051C203.034 383.969 203.269 383.867 203.494 383.747C203.696 383.668 203.891 383.574 204.079 383.467C207.002 381.867 209.422 378.811 211.906 375.674C212.724 374.641 213.549 373.599 214.401 372.598C214.799 372.13 215.197 371.663 215.618 371.219L216.25 370.541L216.906 369.909C217.089 369.718 217.285 369.539 217.491 369.372C218.373 368.547 219.347 367.825 220.393 367.221C221.41 376.317 228.825 383.367 237.971 383.934H238.486C238.761 383.948 239.038 383.954 239.313 383.951C239.498 383.949 239.682 383.944 239.867 383.934C240.284 383.916 240.699 383.861 241.107 383.771L241.997 383.607C242.33 383.543 242.658 383.458 242.98 383.35C243.34 383.273 243.693 383.164 244.033 383.023H244.22L243.378 380.335C241.703 373.683 241.306 366.775 242.208 359.975C243.27 351.204 245.636 342.64 249.229 334.567C252.902 326.229 257.775 318.472 263.694 311.542C263.928 311.238 264.256 310.888 264.583 310.514C269.431 304.943 274.932 299.975 280.968 295.717C289.065 290.121 297.967 285.786 307.37 282.861C309.382 282.23 311.512 281.599 314.063 280.944L316.755 280.313C336.122 276.113 356.2 276.457 375.411 281.318C377.751 281.879 380.092 282.557 382.432 283.328L383.345 283.609C399.062 288.514 413.362 297.134 425.031 308.737C432.761 316.514 438.787 325.811 442.726 336.039C443.381 337.675 443.99 339.452 444.598 341.369C448.127 353.35 448.224 366.08 444.879 378.114L444.505 379.213C444.224 380.054 443.919 380.896 443.568 381.714L444.551 382.228C444.799 382.347 445.046 382.461 445.294 382.569C445.468 382.645 445.642 382.718 445.815 382.789C446.705 383.164 447.63 383.446 448.577 383.631C449.203 383.766 449.836 383.867 450.473 383.934C451.019 383.97 451.566 383.97 452.111 383.934H452.65C457.05 383.691 461.211 381.855 464.353 378.769C464.599 378.537 464.845 378.288 465.08 378.038C465.225 377.883 465.365 377.728 465.5 377.576C466.153 376.851 466.74 376.068 467.255 375.239C467.766 374.434 468.227 373.599 468.636 372.738C468.733 372.52 468.83 372.296 468.923 372.066C469.011 371.851 469.095 371.631 469.174 371.405C469.657 370.048 469.964 368.634 470.087 367.198L470.813 367.642C472.05 368.459 473.189 369.416 474.207 370.494L475.471 371.85L476.079 372.551L477.273 373.977C478.724 375.777 480.105 377.623 481.58 379.259C481.837 379.563 482.095 379.867 482.375 380.148C482.771 380.571 483.185 380.978 483.615 381.367C483.852 381.582 484.094 381.791 484.341 381.994C484.669 382.272 485.013 382.529 485.371 382.766C485.54 382.899 485.72 383.016 485.91 383.116C486.081 383.231 486.261 383.333 486.448 383.42C487.272 383.884 488.165 384.215 489.093 384.402H489.936C490.627 384.483 491.327 384.483 492.019 384.402C492.397 384.346 492.772 384.268 493.142 384.168C493.503 384.075 493.856 383.95 494.195 383.794C494.843 383.53 495.45 383.176 495.998 382.742C496.164 382.631 496.32 382.506 496.466 382.368C496.625 382.249 496.774 382.116 496.911 381.971C497.462 381.457 497.957 380.885 498.385 380.265C498.665 379.866 498.922 379.452 499.157 379.026L499.368 378.652C499.602 378.211 499.813 377.759 500 377.296C500.094 377.135 500.165 376.962 500.21 376.782C500.297 376.583 500.376 376.38 500.447 376.176C500.547 375.891 500.632 375.602 500.702 375.309C500.82 374.973 500.914 374.63 500.983 374.281C501.024 374.13 501.061 373.978 501.093 373.826C501.134 373.636 501.167 373.444 501.194 373.252C501.29 372.869 501.353 372.478 501.381 372.083C501.469 371.44 501.524 370.792 501.545 370.143V366.637C501.57 366.594 501.57 366.54 501.545 366.497V364.159C501.357 362.57 501.357 361.027 501.357 359.484V357.801C501.357 357.684 501.352 357.599 501.347 357.513C501.336 357.342 501.326 357.17 501.357 356.749C501.369 356.597 501.377 356.427 501.386 356.253C501.414 355.704 501.444 355.11 501.568 354.879C501.732 354.575 501.732 354.248 501.732 353.944C501.78 353.628 501.85 353.316 501.943 353.009C502.035 352.59 502.152 352.176 502.294 351.771C508.129 356.66 514.921 360.283 522.235 362.406C522.565 362.509 522.901 362.587 523.242 362.64C524.223 362.838 525.234 362.838 526.215 362.64L527.081 362.383C527.346 362.284 527.604 362.167 527.853 362.032C528.501 361.699 529.074 361.238 529.538 360.676C529.862 360.299 530.138 359.883 530.357 359.438L530.568 358.97C530.668 358.726 530.754 358.476 530.826 358.222C530.992 357.792 531.109 357.345 531.177 356.89Z" transform="translate(-226 -189)" fill="#4F4F4F"/>
<path d="M18.5128 54.1555C14.0027 58.1852 7.79239 59.047 0 56.741C15.0181 48.5187 21.8187 23.9449 18.1586 0C20.9801 4.58089 23.2017 9.49597 24.7704 14.6278C29.3513 29.5817 26.683 46.9348 18.5128 54.1555Z" transform="translate(180 141)" fill="white"/>
<path d="M4.8102 6.10608C3.37527 6.42193 2.06721 7.19438 1.06317 8.31881C0.384507 9.40355 0.0267036 10.6758 0.0350227 11.9746C-0.421932 20.1521 3.64496 28.0651 9.17412 33.7893C15.0252 39.228 21.608 43.7261 28.7089 47.1379C31.2198 48.7684 34.0621 49.7493 37.0027 50C39.2323 49.8816 41.4127 49.2668 43.4 48.1961C53.1216 43.528 61.1682 35.7064 66.362 25.8764C86.1253 -11.6439 19.6155 1.27173 4.8102 6.10608Z" transform="translate(83 85)" fill="#4F4F4F"/>
<path d="M12.8374 0C12.8374 0 26.9204 26.4737 3.27925 38C3.27925 38 10.9054 22.9607 0 3.03082L12.8374 0Z" transform="translate(205 62)" fill="#6B6B6B"/>
</g>
</svg>
